<svg class="rich-terminal" viewBox="0 0 1519 586.8" xmlns="http://www.w3.org/2000/svg">
    <!-- Generated with Rich https://www.textualize.io -->
    <style>

    @font-face {
        font-family: "Fira Code";
        src: local("FiraCode-Regular"),
                url("https://cdnjs.cloudflare.com/ajax/libs/firacode/6.2.0/woff2/FiraCode-Regular.woff2") format("woff2"),
                url("https://cdnjs.cloudflare.com/ajax/libs/firacode/6.2.0/woff/FiraCode-Regular.woff") format("woff");
        font-style: normal;
        font-weight: 400;
    }
    @font-face {
        font-family: "Fira Code";
        src: local("FiraCode-Bold"),
                url("https://cdnjs.cloudflare.com/ajax/libs/firacode/6.2.0/woff2/FiraCode-Bold.woff2") format("woff2"),
                url("https://cdnjs.cloudflare.com/ajax/libs/firacode/6.2.0/woff/FiraCode-Bold.woff") format("woff");
        font-style: bold;
        font-weight: 700;
    }

    .terminal-3586065906-matrix {
        font-family: Fira Code, monospace;
        font-size: 20px;
        line-height: 24.4px;
        font-variant-east-asian: full-width;
    }

    .terminal-3586065906-title {
        font-size: 18px;
        font-weight: bold;
        font-family: arial;
    }

    .terminal-3586065906-r1 { fill: #e0e0e0 }
.terminal-3586065906-r2 { fill: #fea62b }
.terminal-3586065906-r3 { fill: #c5c8c6 }
.terminal-3586065906-r4 { fill: #507bb3 }
.terminal-3586065906-r5 { fill: #004578;font-weight: bold }
.terminal-3586065906-r6 { fill: #001541 }
.terminal-3586065906-r7 { fill: #fea62b;font-weight: bold }
.terminal-3586065906-r8 { fill: #a7a9ab }
.terminal-3586065906-r9 { fill: #e2e3e3 }
    </style>

    <defs>
    <clipPath id="terminal-3586065906-clip-terminal">
      <rect x="0" y="0" width="1499.6" height="535.8" />
    </clipPath>
    <clipPath id="terminal-3586065906-line-0">
    <rect x="0" y="1.5" width="1500.6" height="24.65"/>
            </clipPath>
<clipPath id="terminal-3586065906-line-1">
    <rect x="0" y="25.9" width="1500.6" height="24.65"/>
            </clipPath>
<clipPath id="terminal-3586065906-line-2">
    <rect x="0" y="50.3" width="1500.6" height="24.65"/>
            </clipPath>
<clipPath id="terminal-3586065906-line-3">
    <rect x="0" y="74.7" width="1500.6" height="24.65"/>
            </clipPath>
<clipPath id="terminal-3586065906-line-4">
    <rect x="0" y="99.1" width="1500.6" height="24.65"/>
            </clipPath>
<clipPath id="terminal-3586065906-line-5">
    <rect x="0" y="123.5" width="1500.6" height="24.65"/>
            </clipPath>
<clipPath id="terminal-3586065906-line-6">
    <rect x="0" y="147.9" width="1500.6" height="24.65"/>
            </clipPath>
<clipPath id="terminal-3586065906-line-7">
    <rect x="0" y="172.3" width="1500.6" height="24.65"/>
            </clipPath>
<clipPath id="terminal-3586065906-line-8">
    <rect x="0" y="196.7" width="1500.6" height="24.65"/>
            </clipPath>
<clipPath id="terminal-3586065906-line-9">
    <rect x="0" y="221.1" width="1500.6" height="24.65"/>
            </clipPath>
<clipPath id="terminal-3586065906-line-10">
    <rect x="0" y="245.5" width="1500.6" height="24.65"/>
            </clipPath>
<clipPath id="terminal-3586065906-line-11">
    <rect x="0" y="269.9" width="1500.6" height="24.65"/>
            </clipPath>
<clipPath id="terminal-3586065906-line-12">
    <rect x="0" y="294.3" width="1500.6" height="24.65"/>
            </clipPath>
<clipPath id="terminal-3586065906-line-13">
    <rect x="0" y="318.7" width="1500.6" height="24.65"/>
            </clipPath>
<clipPath id="terminal-3586065906-line-14">
    <rect x="0" y="343.1" width="1500.6" height="24.65"/>
            </clipPath>
<clipPath id="terminal-3586065906-line-15">
    <rect x="0" y="367.5" width="1500.6" height="24.65"/>
            </clipPath>
<clipPath id="terminal-3586065906-line-16">
    <rect x="0" y="391.9" width="1500.6" height="24.65"/>
            </clipPath>
<clipPath id="terminal-3586065906-line-17">
    <rect x="0" y="416.3" width="1500.6" height="24.65"/>
            </clipPath>
<clipPath id="terminal-3586065906-line-18">
    <rect x="0" y="440.7" width="1500.6" height="24.65"/>
            </clipPath>
<clipPath id="terminal-3586065906-line-19">
    <rect x="0" y="465.1" width="1500.6" height="24.65"/>
            </clipPath>
<clipPath id="terminal-3586065906-line-20">
    <rect x="0" y="489.5" width="1500.6" height="24.65"/>
            </clipPath>
    </defs>

    <rect fill="#292929" stroke="rgba(255,255,255,0.35)" stroke-width="1" x="1" y="1" width="1517" height="584.8" rx="8"/><text class="terminal-3586065906-title" fill="#c5c8c6" text-anchor="middle" x="758" y="27">Memotica</text>
            <g transform="translate(26,22)">
            <circle cx="0" cy="0" r="7" fill="#ff5f57"/>
            <circle cx="22" cy="0" r="7" fill="#febc2e"/>
            <circle cx="44" cy="0" r="7" fill="#28c840"/>
            </g>
        
    <g transform="translate(9, 41)" clip-path="url(#terminal-3586065906-clip-terminal)">
    <rect fill="#121212" x="0" y="1.5" width="24.4" height="24.65" shape-rendering="crispEdges"/><rect fill="#121212" x="24.4" y="1.5" width="12.2" height="24.65" shape-rendering="crispEdges"/><rect fill="#121212" x="36.6" y="1.5" width="1427.4" height="24.65" shape-rendering="crispEdges"/><rect fill="#121212" x="1464" y="1.5" width="12.2" height="24.65" shape-rendering="crispEdges"/><rect fill="#121212" x="1476.2" y="1.5" width="24.4" height="24.65" shape-rendering="crispEdges"/><rect fill="#121212" x="0" y="25.9" width="24.4" height="24.65" shape-rendering="crispEdges"/><rect fill="#121212" x="24.4" y="25.9" width="12.2" height="24.65" shape-rendering="crispEdges"/><rect fill="#121212" x="36.6" y="25.9" width="1427.4" height="24.65" shape-rendering="crispEdges"/><rect fill="#121212" x="1464" y="25.9" width="12.2" height="24.65" shape-rendering="crispEdges"/><rect fill="#121212" x="1476.2" y="25.9" width="24.4" height="24.65" shape-rendering="crispEdges"/><rect fill="#121212" x="0" y="50.3" width="24.4" height="24.65" shape-rendering="crispEdges"/><rect fill="#121212" x="24.4" y="50.3" width="12.2" height="24.65" shape-rendering="crispEdges"/><rect fill="#121212" x="36.6" y="50.3" width="12.2" height="24.65" shape-rendering="crispEdges"/><rect fill="#121212" x="48.8" y="50.3" width="146.4" height="24.65" shape-rendering="crispEdges"/><rect fill="#121212" x="195.2" y="50.3" width="1256.6" height="24.65" shape-rendering="crispEdges"/><rect fill="#121212" x="1451.8" y="50.3" width="12.2" height="24.65" shape-rendering="crispEdges"/><rect fill="#121212" x="1464" y="50.3" width="12.2" height="24.65" shape-rendering="crispEdges"/><rect fill="#121212" x="1476.2" y="50.3" width="24.4" height="24.65" shape-rendering="crispEdges"/><rect fill="#121212" x="0" y="74.7" width="24.4" height="24.65" shape-rendering="crispEdges"/><rect fill="#121212" x="24.4" y="74.7" width="12.2" height="24.65" shape-rendering="crispEdges"/><rect fill="#121212" x="36.6" y="74.7" width="12.2" height="24.65" shape-rendering="crispEdges"/><rect fill="#121212" x="48.8" y="74.7" width="1403" height="24.65" shape-rendering="crispEdges"/><rect fill="#121212" x="1451.8" y="74.7" width="12.2" height="24.65" shape-rendering="crispEdges"/><rect fill="#121212" x="1464" y="74.7" width="12.2" height="24.65" shape-rendering="crispEdges"/><rect fill="#121212" x="1476.2" y="74.7" width="24.4" height="24.65" shape-rendering="crispEdges"/><rect fill="#121212" x="0" y="99.1" width="24.4" height="24.65" shape-rendering="crispEdges"/><rect fill="#121212" x="24.4" y="99.1" width="12.2" height="24.65" shape-rendering="crispEdges"/><rect fill="#121212" x="36.6" y="99.1" width="1427.4" height="24.65" shape-rendering="crispEdges"/><rect fill="#121212" x="1464" y="99.1" width="12.2" height="24.65" shape-rendering="crispEdges"/><rect fill="#121212" x="1476.2" y="99.1" width="24.4" height="24.65" shape-rendering="crispEdges"/><rect fill="#121212" x="0" y="123.5" width="24.4" height="24.65" shape-rendering="crispEdges"/><rect fill="#121212" x="24.4" y="123.5" width="12.2" height="24.65" shape-rendering="crispEdges"/><rect fill="#121212" x="36.6" y="123.5" width="1427.4" height="24.65" shape-rendering="crispEdges"/><rect fill="#121212" x="1464" y="123.5" width="12.2" height="24.65" shape-rendering="crispEdges"/><rect fill="#121212" x="1476.2" y="123.5" width="24.4" height="24.65" shape-rendering="crispEdges"/><rect fill="#121212" x="0" y="147.9" width="1500.6" height="24.65" shape-rendering="crispEdges"/><rect fill="#121212" x="0" y="172.3" width="1451.8" height="24.65" shape-rendering="crispEdges"/><rect fill="#121212" x="1451.8" y="172.3" width="48.8" height="24.65" shape-rendering="crispEdges"/><rect fill="#121212" x="0" y="196.7" width="1451.8" height="24.65" shape-rendering="crispEdges"/><rect fill="#121212" x="1451.8" y="196.7" width="48.8" height="24.65" shape-rendering="crispEdges"/><rect fill="#121212" x="0" y="221.1" width="1451.8" height="24.65" shape-rendering="crispEdges"/><rect fill="#121212" x="1451.8" y="221.1" width="48.8" height="24.65" shape-rendering="crispEdges"/><rect fill="#121212" x="0" y="245.5" width="1451.8" height="24.65" shape-rendering="crispEdges"/><rect fill="#121212" x="1451.8" y="245.5" width="48.8" height="24.65" shape-rendering="crispEdges"/><rect fill="#121212" x="0" y="269.9" width="1451.8" height="24.65" shape-rendering="crispEdges"/><rect fill="#121212" x="1451.8" y="269.9" width="48.8" height="24.65" shape-rendering="crispEdges"/><rect fill="#121212" x="0" y="294.3" width="622.2" height="24.65" shape-rendering="crispEdges"/><rect fill="#004578" x="622.2" y="294.3" width="195.2" height="24.65" shape-rendering="crispEdges"/><rect fill="#121212" x="817.4" y="294.3" width="634.4" height="24.65" shape-rendering="crispEdges"/><rect fill="#121212" x="1451.8" y="294.3" width="48.8" height="24.65" shape-rendering="crispEdges"/><rect fill="#121212" x="0" y="318.7" width="622.2" height="24.65" shape-rendering="crispEdges"/><rect fill="#004578" x="622.2" y="318.7" width="61" height="24.65" shape-rendering="crispEdges"/><rect fill="#dde6ed" x="683.2" y="318.7" width="12.2" height="24.65" shape-rendering="crispEdges"/><rect fill="#dde6ed" x="695.4" y="318.7" width="48.8" height="24.65" shape-rendering="crispEdges"/><rect fill="#dde6ed" x="744.2" y="318.7" width="12.2" height="24.65" shape-rendering="crispEdges"/><rect fill="#004578" x="756.4" y="318.7" width="61" height="24.65" shape-rendering="crispEdges"/><rect fill="#121212" x="817.4" y="318.7" width="634.4" height="24.65" shape-rendering="crispEdges"/><rect fill="#121212" x="1451.8" y="318.7" width="48.8" height="24.65" shape-rendering="crispEdges"/><rect fill="#121212" x="0" y="343.1" width="622.2" height="24.65" shape-rendering="crispEdges"/><rect fill="#004578" x="622.2" y="343.1" width="195.2" height="24.65" shape-rendering="crispEdges"/><rect fill="#121212" x="817.4" y="343.1" width="634.4" height="24.65" shape-rendering="crispEdges"/><rect fill="#121212" x="1451.8" y="343.1" width="48.8" height="24.65" shape-rendering="crispEdges"/><rect fill="#121212" x="0" y="367.5" width="1451.8" height="24.65" shape-rendering="crispEdges"/><rect fill="#121212" x="1451.8" y="367.5" width="48.8" height="24.65" shape-rendering="crispEdges"/><rect fill="#121212" x="0" y="391.9" width="1451.8" height="24.65" shape-rendering="crispEdges"/><rect fill="#121212" x="1451.8" y="391.9" width="48.8" height="24.65" shape-rendering="crispEdges"/><rect fill="#121212" x="0" y="416.3" width="1451.8" height="24.65" shape-rendering="crispEdges"/><rect fill="#121212" x="1451.8" y="416.3" width="48.8" height="24.65" shape-rendering="crispEdges"/><rect fill="#121212" x="0" y="440.7" width="1451.8" height="24.65" shape-rendering="crispEdges"/><rect fill="#121212" x="1451.8" y="440.7" width="48.8" height="24.65" shape-rendering="crispEdges"/><rect fill="#121212" x="0" y="465.1" width="1451.8" height="24.65" shape-rendering="crispEdges"/><rect fill="#121212" x="1451.8" y="465.1" width="48.8" height="24.65" shape-rendering="crispEdges"/><rect fill="#121212" x="0" y="489.5" width="1451.8" height="24.65" shape-rendering="crispEdges"/><rect fill="#121212" x="1451.8" y="489.5" width="48.8" height="24.65" shape-rendering="crispEdges"/><rect fill="#24292f" x="0" y="513.9" width="48.8" height="24.65" shape-rendering="crispEdges"/><rect fill="#24292f" x="48.8" y="513.9" width="231.8" height="24.65" shape-rendering="crispEdges"/><rect fill="#24292f" x="280.6" y="513.9" width="12.2" height="24.65" shape-rendering="crispEdges"/><rect fill="#24292f" x="292.8" y="513.9" width="48.8" height="24.65" shape-rendering="crispEdges"/><rect fill="#24292f" x="341.6" y="513.9" width="48.8" height="24.65" shape-rendering="crispEdges"/><rect fill="#24292f" x="390.4" y="513.9" width="12.2" height="24.65" shape-rendering="crispEdges"/><rect fill="#24292f" x="402.6" y="513.9" width="1098" height="24.65" shape-rendering="crispEdges"/>
    <g class="terminal-3586065906-matrix">
    <text class="terminal-3586065906-r2" x="24.4" y="20" textLength="12.2" clip-path="url(#terminal-3586065906-line-0)">╭</text><text class="terminal-3586065906-r2" x="36.6" y="20" textLength="1427.4" clip-path="url(#terminal-3586065906-line-0)">─────────────────────────────────────────────────────────────────────────────────────────────────────────────────────</text><text class="terminal-3586065906-r2" x="1464" y="20" textLength="12.2" clip-path="url(#terminal-3586065906-line-0)">╮</text><text class="terminal-3586065906-r3" x="1500.6" y="20" textLength="12.2" clip-path="url(#terminal-3586065906-line-0)">
</text><text class="terminal-3586065906-r2" x="24.4" y="44.4" textLength="12.2" clip-path="url(#terminal-3586065906-line-1)">│</text><text class="terminal-3586065906-r2" x="1464" y="44.4" textLength="12.2" clip-path="url(#terminal-3586065906-line-1)">│</text><text class="terminal-3586065906-r3" x="1500.6" y="44.4" textLength="12.2" clip-path="url(#terminal-3586065906-line-1)">
</text><text class="terminal-3586065906-r2" x="24.4" y="68.8" textLength="12.2" clip-path="url(#terminal-3586065906-line-2)">│</text><text class="terminal-3586065906-r1" x="48.8" y="68.8" textLength="146.4" clip-path="url(#terminal-3586065906-line-2)">das&#160;Beispiel</text><text class="terminal-3586065906-r2" x="1464" y="68.8" textLength="12.2" clip-path="url(#terminal-3586065906-line-2)">│</text><text class="terminal-3586065906-r3" x="1500.6" y="68.8" textLength="12.2" clip-path="url(#terminal-3586065906-line-2)">
</text><text class="terminal-3586065906-r2" x="24.4" y="93.2" textLength="12.2" clip-path="url(#terminal-3586065906-line-3)">│</text><text class="terminal-3586065906-r2" x="1464" y="93.2" textLength="12.2" clip-path="url(#terminal-3586065906-line-3)">│</text><text class="terminal-3586065906-r3" x="1500.6" y="93.2" textLength="12.2" clip-path="url(#terminal-3586065906-line-3)">
</text><text class="terminal-3586065906-r2" x="24.4" y="117.6" textLength="12.2" clip-path="url(#terminal-3586065906-line-4)">│</text><text class="terminal-3586065906-r2" x="1464" y="117.6" textLength="12.2" clip-path="url(#terminal-3586065906-line-4)">│</text><text class="terminal-3586065906-r3" x="1500.6" y="117.6" textLength="12.2" clip-path="url(#terminal-3586065906-line-4)">
</text><text class="terminal-3586065906-r2" x="24.4" y="142" textLength="12.2" clip-path="url(#terminal-3586065906-line-5)">╰</text><text class="terminal-3586065906-r2" x="36.6" y="142" textLength="1427.4" clip-path="url(#terminal-3586065906-line-5)">─────────────────────────────────────────────────────────────────────────────────────────────────────────────────────</text><text class="terminal-3586065906-r2" x="1464" y="142" textLength="12.2" clip-path="url(#terminal-3586065906-line-5)">╯</text><text class="terminal-3586065906-r3" x="1500.6" y="142" textLength="12.2" clip-path="url(#terminal-3586065906-line-5)">
</text><text class="terminal-3586065906-r3" x="1500.6" y="166.4" textLength="12.2" clip-path="url(#terminal-3586065906-line-6)">
</text><text class="terminal-3586065906-r3" x="1500.6" y="190.8" textLength="12.2" clip-path="url(#terminal-3586065906-line-7)">
</text><text class="terminal-3586065906-r3" x="1500.6" y="215.2" textLength="12.2" clip-path="url(#terminal-3586065906-line-8)">
</text><text class="terminal-3586065906-r3" x="1500.6" y="239.6" textLength="12.2" clip-path="url(#terminal-3586065906-line-9)">
</text><text class="terminal-3586065906-r3" x="1500.6" y="264" textLength="12.2" clip-path="url(#terminal-3586065906-line-10)">
</text><text class="terminal-3586065906-r3" x="1500.6" y="288.4" textLength="12.2" clip-path="url(#terminal-3586065906-line-11)">
</text><text class="terminal-3586065906-r4" x="622.2" y="312.8" textLength="195.2" clip-path="url(#terminal-3586065906-line-12)">▔▔▔▔▔▔▔▔▔▔▔▔▔▔▔▔</text><text class="terminal-3586065906-r3" x="1500.6" y="312.8" textLength="12.2" clip-path="url(#terminal-3586065906-line-12)">
</text><text class="terminal-3586065906-r5" x="695.4" y="337.2" textLength="48.8" clip-path="url(#terminal-3586065906-line-13)">Show</text><text class="terminal-3586065906-r3" x="1500.6" y="337.2" textLength="12.2" clip-path="url(#terminal-3586065906-line-13)">
</text><text class="terminal-3586065906-r6" x="622.2" y="361.6" textLength="195.2" clip-path="url(#terminal-3586065906-line-14)">▁▁▁▁▁▁▁▁▁▁▁▁▁▁▁▁</text><text class="terminal-3586065906-r3" x="1500.6" y="361.6" textLength="12.2" clip-path="url(#terminal-3586065906-line-14)">
</text><text class="terminal-3586065906-r3" x="1500.6" y="386" textLength="12.2" clip-path="url(#terminal-3586065906-line-15)">
</text><text class="terminal-3586065906-r3" x="1500.6" y="410.4" textLength="12.2" clip-path="url(#terminal-3586065906-line-16)">
</text><text class="terminal-3586065906-r3" x="1500.6" y="434.8" textLength="12.2" clip-path="url(#terminal-3586065906-line-17)">
</text><text class="terminal-3586065906-r3" x="1500.6" y="459.2" textLength="12.2" clip-path="url(#terminal-3586065906-line-18)">
</text><text class="terminal-3586065906-r3" x="1500.6" y="483.6" textLength="12.2" clip-path="url(#terminal-3586065906-line-19)">
</text><text class="terminal-3586065906-r3" x="1500.6" y="508" textLength="12.2" clip-path="url(#terminal-3586065906-line-20)">
</text><text class="terminal-3586065906-r7" x="0" y="532.4" textLength="48.8" clip-path="url(#terminal-3586065906-line-21)">&#160;^q&#160;</text><text class="terminal-3586065906-r8" x="48.8" y="532.4" textLength="231.8" clip-path="url(#terminal-3586065906-line-21)">Exit&#160;Review&#160;Session</text><text class="terminal-3586065906-r7" x="292.8" y="532.4" textLength="48.8" clip-path="url(#terminal-3586065906-line-21)">&#160;f1&#160;</text><text class="terminal-3586065906-r8" x="341.6" y="532.4" textLength="48.8" clip-path="url(#terminal-3586065906-line-21)">Help</text>
    </g>
    </g>
</svg>
