<svg class="rich-terminal" viewBox="0 0 1421 513.5999999999999" xmlns="http://www.w3.org/2000/svg">
    <!-- Generated with Rich https://www.textualize.io -->
    <style>

    @font-face {
        font-family: "Fira Code";
        src: local("FiraCode-Regular"),
                url("https://cdnjs.cloudflare.com/ajax/libs/firacode/6.2.0/woff2/FiraCode-Regular.woff2") format("woff2"),
                url("https://cdnjs.cloudflare.com/ajax/libs/firacode/6.2.0/woff/FiraCode-Regular.woff") format("woff");
        font-style: normal;
        font-weight: 400;
    }
    @font-face {
        font-family: "Fira Code";
        src: local("FiraCode-Bold"),
                url("https://cdnjs.cloudflare.com/ajax/libs/firacode/6.2.0/woff2/FiraCode-Bold.woff2") format("woff2"),
                url("https://cdnjs.cloudflare.com/ajax/libs/firacode/6.2.0/woff/FiraCode-Bold.woff") format("woff");
        font-style: bold;
        font-weight: 700;
    }

    .terminal-2128524604-matrix {
        font-family: Fira Code, monospace;
        font-size: 20px;
        line-height: 24.4px;
        font-variant-east-asian: full-width;
    }

    .terminal-2128524604-title {
        font-size: 18px;
        font-weight: bold;
        font-family: arial;
    }

    .terminal-2128524604-r1 { fill: #c5c8c6 }
.terminal-2128524604-r2 { fill: #e3e3e3 }
.terminal-2128524604-r3 { fill: #fea62b }
.terminal-2128524604-r4 { fill: #e2e3e3 }
.terminal-2128524604-r5 { fill: #dde6ed;font-weight: bold }
.terminal-2128524604-r6 { fill: #dde6ed }
.terminal-2128524604-r7 { fill: #008139 }
.terminal-2128524604-r8 { fill: #211505;font-weight: bold }
.terminal-2128524604-r9 { fill: #211505 }
.terminal-2128524604-r10 { fill: #e1e1e1 }
.terminal-2128524604-r11 { fill: #fea62b;font-weight: bold }
.terminal-2128524604-r12 { fill: #a7a9ab }
    </style>

    <defs>
    <clipPath id="terminal-2128524604-clip-terminal">
      <rect x="0" y="0" width="1402.0" height="462.59999999999997" />
    </clipPath>
    <clipPath id="terminal-2128524604-line-0">
    <rect x="0" y="1.5" width="1403" height="24.65"/>
            </clipPath>
<clipPath id="terminal-2128524604-line-1">
    <rect x="0" y="25.9" width="1403" height="24.65"/>
            </clipPath>
<clipPath id="terminal-2128524604-line-2">
    <rect x="0" y="50.3" width="1403" height="24.65"/>
            </clipPath>
<clipPath id="terminal-2128524604-line-3">
    <rect x="0" y="74.7" width="1403" height="24.65"/>
            </clipPath>
<clipPath id="terminal-2128524604-line-4">
    <rect x="0" y="99.1" width="1403" height="24.65"/>
            </clipPath>
<clipPath id="terminal-2128524604-line-5">
    <rect x="0" y="123.5" width="1403" height="24.65"/>
            </clipPath>
<clipPath id="terminal-2128524604-line-6">
    <rect x="0" y="147.9" width="1403" height="24.65"/>
            </clipPath>
<clipPath id="terminal-2128524604-line-7">
    <rect x="0" y="172.3" width="1403" height="24.65"/>
            </clipPath>
<clipPath id="terminal-2128524604-line-8">
    <rect x="0" y="196.7" width="1403" height="24.65"/>
            </clipPath>
<clipPath id="terminal-2128524604-line-9">
    <rect x="0" y="221.1" width="1403" height="24.65"/>
            </clipPath>
<clipPath id="terminal-2128524604-line-10">
    <rect x="0" y="245.5" width="1403" height="24.65"/>
            </clipPath>
<clipPath id="terminal-2128524604-line-11">
    <rect x="0" y="269.9" width="1403" height="24.65"/>
            </clipPath>
<clipPath id="terminal-2128524604-line-12">
    <rect x="0" y="294.3" width="1403" height="24.65"/>
            </clipPath>
<clipPath id="terminal-2128524604-line-13">
    <rect x="0" y="318.7" width="1403" height="24.65"/>
            </clipPath>
<clipPath id="terminal-2128524604-line-14">
    <rect x="0" y="343.1" width="1403" height="24.65"/>
            </clipPath>
<clipPath id="terminal-2128524604-line-15">
    <rect x="0" y="367.5" width="1403" height="24.65"/>
            </clipPath>
<clipPath id="terminal-2128524604-line-16">
    <rect x="0" y="391.9" width="1403" height="24.65"/>
            </clipPath>
<clipPath id="terminal-2128524604-line-17">
    <rect x="0" y="416.3" width="1403" height="24.65"/>
            </clipPath>
    </defs>

    <rect fill="#292929" stroke="rgba(255,255,255,0.35)" stroke-width="1" x="1" y="1" width="1419" height="511.6" rx="8"/><text class="terminal-2128524604-title" fill="#c5c8c6" text-anchor="middle" x="709" y="27">Memotica</text>
            <g transform="translate(26,22)">
            <circle cx="0" cy="0" r="7" fill="#ff5f57"/>
            <circle cx="22" cy="0" r="7" fill="#febc2e"/>
            <circle cx="44" cy="0" r="7" fill="#28c840"/>
            </g>
        
    <g transform="translate(9, 41)" clip-path="url(#terminal-2128524604-clip-terminal)">
    <rect fill="#282828" x="0" y="1.5" width="12.2" height="24.65" shape-rendering="crispEdges"/><rect fill="#282828" x="12.2" y="1.5" width="12.2" height="24.65" shape-rendering="crispEdges"/><rect fill="#282828" x="24.4" y="1.5" width="61" height="24.65" shape-rendering="crispEdges"/><rect fill="#282828" x="85.4" y="1.5" width="12.2" height="24.65" shape-rendering="crispEdges"/><rect fill="#282828" x="97.6" y="1.5" width="536.8" height="24.65" shape-rendering="crispEdges"/><rect fill="#282828" x="634.4" y="1.5" width="97.6" height="24.65" shape-rendering="crispEdges"/><rect fill="#282828" x="732" y="1.5" width="549" height="24.65" shape-rendering="crispEdges"/><rect fill="#282828" x="1281" y="1.5" width="12.2" height="24.65" shape-rendering="crispEdges"/><rect fill="#282828" x="1293.2" y="1.5" width="0" height="24.65" shape-rendering="crispEdges"/><rect fill="#282828" x="1293.2" y="1.5" width="97.6" height="24.65" shape-rendering="crispEdges"/><rect fill="#282828" x="1390.8" y="1.5" width="12.2" height="24.65" shape-rendering="crispEdges"/><rect fill="#24292f" x="0" y="25.9" width="12.2" height="24.65" shape-rendering="crispEdges"/><rect fill="#24292f" x="12.2" y="25.9" width="12.2" height="24.65" shape-rendering="crispEdges"/><rect fill="#24292f" x="24.4" y="25.9" width="85.4" height="24.65" shape-rendering="crispEdges"/><rect fill="#24292f" x="109.8" y="25.9" width="366" height="24.65" shape-rendering="crispEdges"/><rect fill="#24292f" x="475.8" y="25.9" width="12.2" height="24.65" shape-rendering="crispEdges"/><rect fill="#1e1e1e" x="488" y="25.9" width="12.2" height="24.65" shape-rendering="crispEdges"/><rect fill="#1e1e1e" x="500.2" y="25.9" width="12.2" height="24.65" shape-rendering="crispEdges"/><rect fill="#1e1e1e" x="512.4" y="25.9" width="146.4" height="24.65" shape-rendering="crispEdges"/><rect fill="#1e1e1e" x="658.8" y="25.9" width="732" height="24.65" shape-rendering="crispEdges"/><rect fill="#1e1e1e" x="1390.8" y="25.9" width="12.2" height="24.65" shape-rendering="crispEdges"/><rect fill="#24292f" x="0" y="50.3" width="12.2" height="24.65" shape-rendering="crispEdges"/><rect fill="#24292f" x="12.2" y="50.3" width="24.4" height="24.65" shape-rendering="crispEdges"/><rect fill="#24292f" x="36.6" y="50.3" width="12.2" height="24.65" shape-rendering="crispEdges"/><rect fill="#24292f" x="48.8" y="50.3" width="427" height="24.65" shape-rendering="crispEdges"/><rect fill="#24292f" x="475.8" y="50.3" width="12.2" height="24.65" shape-rendering="crispEdges"/><rect fill="#1e1e1e" x="488" y="50.3" width="12.2" height="24.65" shape-rendering="crispEdges"/><rect fill="#004578" x="500.2" y="50.3" width="183" height="24.65" shape-rendering="crispEdges"/><rect fill="#004578" x="683.2" y="50.3" width="146.4" height="24.65" shape-rendering="crispEdges"/><rect fill="#004578" x="829.6" y="50.3" width="146.4" height="24.65" shape-rendering="crispEdges"/><rect fill="#004578" x="976" y="50.3" width="134.2" height="24.65" shape-rendering="crispEdges"/><rect fill="#073b61" x="1110.2" y="50.3" width="280.6" height="24.65" shape-rendering="crispEdges"/><rect fill="#1e1e1e" x="1390.8" y="50.3" width="12.2" height="24.65" shape-rendering="crispEdges"/><rect fill="#24292f" x="0" y="74.7" width="12.2" height="24.65" shape-rendering="crispEdges"/><rect fill="#24292f" x="12.2" y="74.7" width="36.6" height="24.65" shape-rendering="crispEdges"/><rect fill="#fea62b" x="48.8" y="74.7" width="109.8" height="24.65" shape-rendering="crispEdges"/><rect fill="#24292f" x="158.6" y="74.7" width="317.2" height="24.65" shape-rendering="crispEdges"/><rect fill="#24292f" x="475.8" y="74.7" width="12.2" height="24.65" shape-rendering="crispEdges"/><rect fill="#1e1e1e" x="488" y="74.7" width="12.2" height="24.65" shape-rendering="crispEdges"/><rect fill="#fea62b" x="500.2" y="74.7" width="183" height="24.65" shape-rendering="crispEdges"/><rect fill="#fea62b" x="683.2" y="74.7" width="146.4" height="24.65" shape-rendering="crispEdges"/><rect fill="#fea62b" x="829.6" y="74.7" width="146.4" height="24.65" shape-rendering="crispEdges"/><rect fill="#fea62b" x="976" y="74.7" width="134.2" height="24.65" shape-rendering="crispEdges"/><rect fill="#1e1e1e" x="1110.2" y="74.7" width="280.6" height="24.65" shape-rendering="crispEdges"/><rect fill="#1e1e1e" x="1390.8" y="74.7" width="12.2" height="24.65" shape-rendering="crispEdges"/><rect fill="#24292f" x="0" y="99.1" width="12.2" height="24.65" shape-rendering="crispEdges"/><rect fill="#24292f" x="12.2" y="99.1" width="36.6" height="24.65" shape-rendering="crispEdges"/><rect fill="#24292f" x="48.8" y="99.1" width="109.8" height="24.65" shape-rendering="crispEdges"/><rect fill="#24292f" x="158.6" y="99.1" width="317.2" height="24.65" shape-rendering="crispEdges"/><rect fill="#24292f" x="475.8" y="99.1" width="12.2" height="24.65" shape-rendering="crispEdges"/><rect fill="#1e1e1e" x="488" y="99.1" width="12.2" height="24.65" shape-rendering="crispEdges"/><rect fill="#1e1e1e" x="500.2" y="99.1" width="183" height="24.65" shape-rendering="crispEdges"/><rect fill="#1e1e1e" x="683.2" y="99.1" width="146.4" height="24.65" shape-rendering="crispEdges"/><rect fill="#1e1e1e" x="829.6" y="99.1" width="146.4" height="24.65" shape-rendering="crispEdges"/><rect fill="#1e1e1e" x="976" y="99.1" width="134.2" height="24.65" shape-rendering="crispEdges"/><rect fill="#1e1e1e" x="1110.2" y="99.1" width="280.6" height="24.65" shape-rendering="crispEdges"/><rect fill="#1e1e1e" x="1390.8" y="99.1" width="12.2" height="24.65" shape-rendering="crispEdges"/><rect fill="#24292f" x="0" y="123.5" width="12.2" height="24.65" shape-rendering="crispEdges"/><rect fill="#24292f" x="12.2" y="123.5" width="36.6" height="24.65" shape-rendering="crispEdges"/><rect fill="#24292f" x="48.8" y="123.5" width="97.6" height="24.65" shape-rendering="crispEdges"/><rect fill="#24292f" x="146.4" y="123.5" width="329.4" height="24.65" shape-rendering="crispEdges"/><rect fill="#24292f" x="475.8" y="123.5" width="12.2" height="24.65" shape-rendering="crispEdges"/><rect fill="#1e1e1e" x="488" y="123.5" width="12.2" height="24.65" shape-rendering="crispEdges"/><rect fill="#1e1e1e" x="500.2" y="123.5" width="183" height="24.65" shape-rendering="crispEdges"/><rect fill="#1e1e1e" x="683.2" y="123.5" width="146.4" height="24.65" shape-rendering="crispEdges"/><rect fill="#1e1e1e" x="829.6" y="123.5" width="146.4" height="24.65" shape-rendering="crispEdges"/><rect fill="#1e1e1e" x="976" y="123.5" width="134.2" height="24.65" shape-rendering="crispEdges"/><rect fill="#1e1e1e" x="1110.2" y="123.5" width="280.6" height="24.65" shape-rendering="crispEdges"/><rect fill="#1e1e1e" x="1390.8" y="123.5" width="12.2" height="24.65" shape-rendering="crispEdges"/><rect fill="#24292f" x="0" y="147.9" width="12.2" height="24.65" shape-rendering="crispEdges"/><rect fill="#24292f" x="12.2" y="147.9" width="36.6" height="24.65" shape-rendering="crispEdges"/><rect fill="#24292f" x="48.8" y="147.9" width="97.6" height="24.65" shape-rendering="crispEdges"/><rect fill="#24292f" x="146.4" y="147.9" width="329.4" height="24.65" shape-rendering="crispEdges"/><rect fill="#24292f" x="475.8" y="147.9" width="12.2" height="24.65" shape-rendering="crispEdges"/><rect fill="#1e1e1e" x="488" y="147.9" width="12.2" height="24.65" shape-rendering="crispEdges"/><rect fill="#1e1e1e" x="500.2" y="147.9" width="183" height="24.65" shape-rendering="crispEdges"/><rect fill="#1e1e1e" x="683.2" y="147.9" width="146.4" height="24.65" shape-rendering="crispEdges"/><rect fill="#1e1e1e" x="829.6" y="147.9" width="146.4" height="24.65" shape-rendering="crispEdges"/><rect fill="#1e1e1e" x="976" y="147.9" width="134.2" height="24.65" shape-rendering="crispEdges"/><rect fill="#1e1e1e" x="1110.2" y="147.9" width="280.6" height="24.65" shape-rendering="crispEdges"/><rect fill="#1e1e1e" x="1390.8" y="147.9" width="12.2" height="24.65" shape-rendering="crispEdges"/><rect fill="#24292f" x="0" y="172.3" width="12.2" height="24.65" shape-rendering="crispEdges"/><rect fill="#24292f" x="12.2" y="172.3" width="463.6" height="24.65" shape-rendering="crispEdges"/><rect fill="#24292f" x="475.8" y="172.3" width="12.2" height="24.65" shape-rendering="crispEdges"/><rect fill="#1e1e1e" x="488" y="172.3" width="12.2" height="24.65" shape-rendering="crispEdges"/><rect fill="#1e1e1e" x="500.2" y="172.3" width="183" height="24.65" shape-rendering="crispEdges"/><rect fill="#1e1e1e" x="683.2" y="172.3" width="146.4" height="24.65" shape-rendering="crispEdges"/><rect fill="#1e1e1e" x="829.6" y="172.3" width="146.4" height="24.65" shape-rendering="crispEdges"/><rect fill="#1e1e1e" x="976" y="172.3" width="134.2" height="24.65" shape-rendering="crispEdges"/><rect fill="#1e1e1e" x="1110.2" y="172.3" width="280.6" height="24.65" shape-rendering="crispEdges"/><rect fill="#1e1e1e" x="1390.8" y="172.3" width="12.2" height="24.65" shape-rendering="crispEdges"/><rect fill="#24292f" x="0" y="196.7" width="12.2" height="24.65" shape-rendering="crispEdges"/><rect fill="#24292f" x="12.2" y="196.7" width="463.6" height="24.65" shape-rendering="crispEdges"/><rect fill="#24292f" x="475.8" y="196.7" width="12.2" height="24.65" shape-rendering="crispEdges"/><rect fill="#1e1e1e" x="488" y="196.7" width="12.2" height="24.65" shape-rendering="crispEdges"/><rect fill="#1e1e1e" x="500.2" y="196.7" width="183" height="24.65" shape-rendering="crispEdges"/><rect fill="#1e1e1e" x="683.2" y="196.7" width="146.4" height="24.65" shape-rendering="crispEdges"/><rect fill="#1e1e1e" x="829.6" y="196.7" width="146.4" height="24.65" shape-rendering="crispEdges"/><rect fill="#1e1e1e" x="976" y="196.7" width="134.2" height="24.65" shape-rendering="crispEdges"/><rect fill="#1e1e1e" x="1110.2" y="196.7" width="280.6" height="24.65" shape-rendering="crispEdges"/><rect fill="#1e1e1e" x="1390.8" y="196.7" width="12.2" height="24.65" shape-rendering="crispEdges"/><rect fill="#24292f" x="0" y="221.1" width="12.2" height="24.65" shape-rendering="crispEdges"/><rect fill="#24292f" x="12.2" y="221.1" width="463.6" height="24.65" shape-rendering="crispEdges"/><rect fill="#24292f" x="475.8" y="221.1" width="12.2" height="24.65" shape-rendering="crispEdges"/><rect fill="#1e1e1e" x="488" y="221.1" width="12.2" height="24.65" shape-rendering="crispEdges"/><rect fill="#1e1e1e" x="500.2" y="221.1" width="183" height="24.65" shape-rendering="crispEdges"/><rect fill="#1e1e1e" x="683.2" y="221.1" width="146.4" height="24.65" shape-rendering="crispEdges"/><rect fill="#1e1e1e" x="829.6" y="221.1" width="146.4" height="24.65" shape-rendering="crispEdges"/><rect fill="#1e1e1e" x="976" y="221.1" width="134.2" height="24.65" shape-rendering="crispEdges"/><rect fill="#1e1e1e" x="1110.2" y="221.1" width="280.6" height="24.65" shape-rendering="crispEdges"/><rect fill="#1e1e1e" x="1390.8" y="221.1" width="12.2" height="24.65" shape-rendering="crispEdges"/><rect fill="#24292f" x="0" y="245.5" width="12.2" height="24.65" shape-rendering="crispEdges"/><rect fill="#24292f" x="12.2" y="245.5" width="463.6" height="24.65" shape-rendering="crispEdges"/><rect fill="#24292f" x="475.8" y="245.5" width="12.2" height="24.65" shape-rendering="crispEdges"/><rect fill="#1e1e1e" x="488" y="245.5" width="12.2" height="24.65" shape-rendering="crispEdges"/><rect fill="#1e1e1e" x="500.2" y="245.5" width="183" height="24.65" shape-rendering="crispEdges"/><rect fill="#1e1e1e" x="683.2" y="245.5" width="146.4" height="24.65" shape-rendering="crispEdges"/><rect fill="#1e1e1e" x="829.6" y="245.5" width="146.4" height="24.65" shape-rendering="crispEdges"/><rect fill="#1e1e1e" x="976" y="245.5" width="134.2" height="24.65" shape-rendering="crispEdges"/><rect fill="#1e1e1e" x="1110.2" y="245.5" width="280.6" height="24.65" shape-rendering="crispEdges"/><rect fill="#1e1e1e" x="1390.8" y="245.5" width="12.2" height="24.65" shape-rendering="crispEdges"/><rect fill="#24292f" x="0" y="269.9" width="12.2" height="24.65" shape-rendering="crispEdges"/><rect fill="#24292f" x="12.2" y="269.9" width="463.6" height="24.65" shape-rendering="crispEdges"/><rect fill="#24292f" x="475.8" y="269.9" width="12.2" height="24.65" shape-rendering="crispEdges"/><rect fill="#1e1e1e" x="488" y="269.9" width="12.2" height="24.65" shape-rendering="crispEdges"/><rect fill="#1e1e1e" x="500.2" y="269.9" width="183" height="24.65" shape-rendering="crispEdges"/><rect fill="#1e1e1e" x="683.2" y="269.9" width="146.4" height="24.65" shape-rendering="crispEdges"/><rect fill="#1e1e1e" x="829.6" y="269.9" width="146.4" height="24.65" shape-rendering="crispEdges"/><rect fill="#1e1e1e" x="976" y="269.9" width="134.2" height="24.65" shape-rendering="crispEdges"/><rect fill="#1e1e1e" x="1110.2" y="269.9" width="280.6" height="24.65" shape-rendering="crispEdges"/><rect fill="#1e1e1e" x="1390.8" y="269.9" width="12.2" height="24.65" shape-rendering="crispEdges"/><rect fill="#24292f" x="0" y="294.3" width="12.2" height="24.65" shape-rendering="crispEdges"/><rect fill="#24292f" x="12.2" y="294.3" width="463.6" height="24.65" shape-rendering="crispEdges"/><rect fill="#24292f" x="475.8" y="294.3" width="12.2" height="24.65" shape-rendering="crispEdges"/><rect fill="#1e1e1e" x="488" y="294.3" width="12.2" height="24.65" shape-rendering="crispEdges"/><rect fill="#1e1e1e" x="500.2" y="294.3" width="183" height="24.65" shape-rendering="crispEdges"/><rect fill="#1e1e1e" x="683.2" y="294.3" width="146.4" height="24.65" shape-rendering="crispEdges"/><rect fill="#1e1e1e" x="829.6" y="294.3" width="146.4" height="24.65" shape-rendering="crispEdges"/><rect fill="#1e1e1e" x="976" y="294.3" width="134.2" height="24.65" shape-rendering="crispEdges"/><rect fill="#1e1e1e" x="1110.2" y="294.3" width="280.6" height="24.65" shape-rendering="crispEdges"/><rect fill="#1e1e1e" x="1390.8" y="294.3" width="12.2" height="24.65" shape-rendering="crispEdges"/><rect fill="#24292f" x="0" y="318.7" width="12.2" height="24.65" shape-rendering="crispEdges"/><rect fill="#24292f" x="12.2" y="318.7" width="463.6" height="24.65" shape-rendering="crispEdges"/><rect fill="#24292f" x="475.8" y="318.7" width="12.2" height="24.65" shape-rendering="crispEdges"/><rect fill="#1e1e1e" x="488" y="318.7" width="12.2" height="24.65" shape-rendering="crispEdges"/><rect fill="#1e1e1e" x="500.2" y="318.7" width="890.6" height="24.65" shape-rendering="crispEdges"/><rect fill="#1e1e1e" x="1390.8" y="318.7" width="12.2" height="24.65" shape-rendering="crispEdges"/><rect fill="#24292f" x="0" y="343.1" width="12.2" height="24.65" shape-rendering="crispEdges"/><rect fill="#24292f" x="12.2" y="343.1" width="463.6" height="24.65" shape-rendering="crispEdges"/><rect fill="#24292f" x="475.8" y="343.1" width="12.2" height="24.65" shape-rendering="crispEdges"/><rect fill="#1e1e1e" x="488" y="343.1" width="12.2" height="24.65" shape-rendering="crispEdges"/><rect fill="#1e1e1e" x="500.2" y="343.1" width="890.6" height="24.65" shape-rendering="crispEdges"/><rect fill="#1e1e1e" x="1390.8" y="343.1" width="12.2" height="24.65" shape-rendering="crispEdges"/><rect fill="#24292f" x="0" y="367.5" width="12.2" height="24.65" shape-rendering="crispEdges"/><rect fill="#24292f" x="12.2" y="367.5" width="463.6" height="24.65" shape-rendering="crispEdges"/><rect fill="#24292f" x="475.8" y="367.5" width="12.2" height="24.65" shape-rendering="crispEdges"/><rect fill="#1e1e1e" x="488" y="367.5" width="12.2" height="24.65" shape-rendering="crispEdges"/><rect fill="#1e1e1e" x="500.2" y="367.5" width="890.6" height="24.65" shape-rendering="crispEdges"/><rect fill="#1e1e1e" x="1390.8" y="367.5" width="12.2" height="24.65" shape-rendering="crispEdges"/><rect fill="#24292f" x="0" y="391.9" width="12.2" height="24.65" shape-rendering="crispEdges"/><rect fill="#24292f" x="12.2" y="391.9" width="463.6" height="24.65" shape-rendering="crispEdges"/><rect fill="#24292f" x="475.8" y="391.9" width="12.2" height="24.65" shape-rendering="crispEdges"/><rect fill="#1e1e1e" x="488" y="391.9" width="12.2" height="24.65" shape-rendering="crispEdges"/><rect fill="#1e1e1e" x="500.2" y="391.9" width="890.6" height="24.65" shape-rendering="crispEdges"/><rect fill="#1e1e1e" x="1390.8" y="391.9" width="12.2" height="24.65" shape-rendering="crispEdges"/><rect fill="#24292f" x="0" y="416.3" width="12.2" height="24.65" shape-rendering="crispEdges"/><rect fill="#24292f" x="12.2" y="416.3" width="463.6" height="24.65" shape-rendering="crispEdges"/><rect fill="#24292f" x="475.8" y="416.3" width="12.2" height="24.65" shape-rendering="crispEdges"/><rect fill="#1e1e1e" x="488" y="416.3" width="12.2" height="24.65" shape-rendering="crispEdges"/><rect fill="#1e1e1e" x="500.2" y="416.3" width="890.6" height="24.65" shape-rendering="crispEdges"/><rect fill="#1e1e1e" x="1390.8" y="416.3" width="12.2" height="24.65" shape-rendering="crispEdges"/><rect fill="#24292f" x="0" y="440.7" width="36.6" height="24.65" shape-rendering="crispEdges"/><rect fill="#24292f" x="36.6" y="440.7" width="134.2" height="24.65" shape-rendering="crispEdges"/><rect fill="#24292f" x="170.8" y="440.7" width="12.2" height="24.65" shape-rendering="crispEdges"/><rect fill="#24292f" x="183" y="440.7" width="48.8" height="24.65" shape-rendering="crispEdges"/><rect fill="#24292f" x="231.8" y="440.7" width="109.8" height="24.65" shape-rendering="crispEdges"/><rect fill="#24292f" x="341.6" y="440.7" width="12.2" height="24.65" shape-rendering="crispEdges"/><rect fill="#24292f" x="353.8" y="440.7" width="48.8" height="24.65" shape-rendering="crispEdges"/><rect fill="#24292f" x="402.6" y="440.7" width="48.8" height="24.65" shape-rendering="crispEdges"/><rect fill="#24292f" x="451.4" y="440.7" width="12.2" height="24.65" shape-rendering="crispEdges"/><rect fill="#24292f" x="463.6" y="440.7" width="48.8" height="24.65" shape-rendering="crispEdges"/><rect fill="#24292f" x="512.4" y="440.7" width="48.8" height="24.65" shape-rendering="crispEdges"/><rect fill="#24292f" x="561.2" y="440.7" width="12.2" height="24.65" shape-rendering="crispEdges"/><rect fill="#24292f" x="573.4" y="440.7" width="48.8" height="24.65" shape-rendering="crispEdges"/><rect fill="#24292f" x="622.2" y="440.7" width="146.4" height="24.65" shape-rendering="crispEdges"/><rect fill="#24292f" x="768.6" y="440.7" width="12.2" height="24.65" shape-rendering="crispEdges"/><rect fill="#24292f" x="780.8" y="440.7" width="48.8" height="24.65" shape-rendering="crispEdges"/><rect fill="#24292f" x="829.6" y="440.7" width="97.6" height="24.65" shape-rendering="crispEdges"/><rect fill="#24292f" x="927.2" y="440.7" width="12.2" height="24.65" shape-rendering="crispEdges"/><rect fill="#24292f" x="939.4" y="440.7" width="48.8" height="24.65" shape-rendering="crispEdges"/><rect fill="#24292f" x="988.2" y="440.7" width="158.6" height="24.65" shape-rendering="crispEdges"/><rect fill="#24292f" x="1146.8" y="440.7" width="12.2" height="24.65" shape-rendering="crispEdges"/><rect fill="#24292f" x="1159" y="440.7" width="244" height="24.65" shape-rendering="crispEdges"/>
    <g class="terminal-2128524604-matrix">
    <text class="terminal-2128524604-r2" x="12.2" y="20" textLength="12.2" clip-path="url(#terminal-2128524604-line-0)">⭘</text><text class="terminal-2128524604-r2" x="634.4" y="20" textLength="97.6" clip-path="url(#terminal-2128524604-line-0)">Memotica</text><text class="terminal-2128524604-r1" x="1403" y="20" textLength="12.2" clip-path="url(#terminal-2128524604-line-0)">
</text><text class="terminal-2128524604-r3" x="0" y="44.4" textLength="12.2" clip-path="url(#terminal-2128524604-line-1)">┌</text><text class="terminal-2128524604-r3" x="12.2" y="44.4" textLength="12.2" clip-path="url(#terminal-2128524604-line-1)">─</text><text class="terminal-2128524604-r3" x="24.4" y="44.4" textLength="85.4" clip-path="url(#terminal-2128524604-line-1)">&#160;Decks&#160;</text><text class="terminal-2128524604-r3" x="109.8" y="44.4" textLength="366" clip-path="url(#terminal-2128524604-line-1)">──────────────────────────────</text><text class="terminal-2128524604-r3" x="475.8" y="44.4" textLength="12.2" clip-path="url(#terminal-2128524604-line-1)">┐</text><text class="terminal-2128524604-r3" x="488" y="44.4" textLength="12.2" clip-path="url(#terminal-2128524604-line-1)">┌</text><text class="terminal-2128524604-r3" x="500.2" y="44.4" textLength="12.2" clip-path="url(#terminal-2128524604-line-1)">─</text><text class="terminal-2128524604-r3" x="512.4" y="44.4" textLength="146.4" clip-path="url(#terminal-2128524604-line-1)">&#160;Flashcards&#160;</text><text class="terminal-2128524604-r3" x="658.8" y="44.4" textLength="732" clip-path="url(#terminal-2128524604-line-1)">────────────────────────────────────────────────────────────</text><text class="terminal-2128524604-r3" x="1390.8" y="44.4" textLength="12.2" clip-path="url(#terminal-2128524604-line-1)">┐</text><text class="terminal-2128524604-r1" x="1403" y="44.4" textLength="12.2" clip-path="url(#terminal-2128524604-line-1)">
</text><text class="terminal-2128524604-r3" x="0" y="68.8" textLength="12.2" clip-path="url(#terminal-2128524604-line-2)">│</text><text class="terminal-2128524604-r4" x="12.2" y="68.8" textLength="24.4" clip-path="url(#terminal-2128524604-line-2)">▼&#160;</text><text class="terminal-2128524604-r4" x="36.6" y="68.8" textLength="12.2" clip-path="url(#terminal-2128524604-line-2)">*</text><text class="terminal-2128524604-r3" x="475.8" y="68.8" textLength="12.2" clip-path="url(#terminal-2128524604-line-2)">│</text><text class="terminal-2128524604-r3" x="488" y="68.8" textLength="12.2" clip-path="url(#terminal-2128524604-line-2)">│</text><text class="terminal-2128524604-r5" x="500.2" y="68.8" textLength="183" clip-path="url(#terminal-2128524604-line-2)">&#160;Front&#160;&#160;&#160;&#160;&#160;&#160;&#160;&#160;&#160;</text><text class="terminal-2128524604-r5" x="683.2" y="68.8" textLength="146.4" clip-path="url(#terminal-2128524604-line-2)">&#160;Back&#160;&#160;&#160;&#160;&#160;&#160;&#160;</text><text class="terminal-2128524604-r5" x="829.6" y="68.8" textLength="146.4" clip-path="url(#terminal-2128524604-line-2)">&#160;Reversible&#160;</text><text class="terminal-2128524604-r5" x="976" y="68.8" textLength="134.2" clip-path="url(#terminal-2128524604-line-2)">&#160;Deck&#160;&#160;&#160;&#160;&#160;&#160;</text><text class="terminal-2128524604-r3" x="1390.8" y="68.8" textLength="12.2" clip-path="url(#terminal-2128524604-line-2)">│</text><text class="terminal-2128524604-r1" x="1403" y="68.8" textLength="12.2" clip-path="url(#terminal-2128524604-line-2)">
</text><text class="terminal-2128524604-r3" x="0" y="93.2" textLength="12.2" clip-path="url(#terminal-2128524604-line-3)">│</text><text class="terminal-2128524604-r7" x="12.2" y="93.2" textLength="36.6" clip-path="url(#terminal-2128524604-line-3)">├─&#160;</text><text class="terminal-2128524604-r8" x="48.8" y="93.2" textLength="109.8" clip-path="url(#terminal-2128524604-line-3)">German&#160;A1</text><text class="terminal-2128524604-r3" x="475.8" y="93.2" textLength="12.2" clip-path="url(#terminal-2128524604-line-3)">│</text><text class="terminal-2128524604-r3" x="488" y="93.2" textLength="12.2" clip-path="url(#terminal-2128524604-line-3)">│</text><text class="terminal-2128524604-r9" x="500.2" y="93.2" textLength="183" clip-path="url(#terminal-2128524604-line-3)">&#160;die&#160;Bank&#160;&#160;&#160;&#160;&#160;&#160;</text><text class="terminal-2128524604-r9" x="683.2" y="93.2" textLength="146.4" clip-path="url(#terminal-2128524604-line-3)">&#160;Bank&#160;&#160;&#160;&#160;&#160;&#160;&#160;</text><text class="terminal-2128524604-r9" x="829.6" y="93.2" textLength="146.4" clip-path="url(#terminal-2128524604-line-3)">&#160;True&#160;&#160;&#160;&#160;&#160;&#160;&#160;</text><text class="terminal-2128524604-r9" x="976" y="93.2" textLength="134.2" clip-path="url(#terminal-2128524604-line-3)">&#160;German&#160;A1&#160;</text><text class="terminal-2128524604-r3" x="1390.8" y="93.2" textLength="12.2" clip-path="url(#terminal-2128524604-line-3)">│</text><text class="terminal-2128524604-r1" x="1403" y="93.2" textLength="12.2" clip-path="url(#terminal-2128524604-line-3)">
</text><text class="terminal-2128524604-r3" x="0" y="117.6" textLength="12.2" clip-path="url(#terminal-2128524604-line-4)">│</text><text class="terminal-2128524604-r7" x="12.2" y="117.6" textLength="36.6" clip-path="url(#terminal-2128524604-line-4)">├─&#160;</text><text class="terminal-2128524604-r4" x="48.8" y="117.6" textLength="109.8" clip-path="url(#terminal-2128524604-line-4)">German&#160;A2</text><text class="terminal-2128524604-r3" x="475.8" y="117.6" textLength="12.2" clip-path="url(#terminal-2128524604-line-4)">│</text><text class="terminal-2128524604-r3" x="488" y="117.6" textLength="12.2" clip-path="url(#terminal-2128524604-line-4)">│</text><text class="terminal-2128524604-r10" x="500.2" y="117.6" textLength="183" clip-path="url(#terminal-2128524604-line-4)">&#160;bitte&#160;&#160;&#160;&#160;&#160;&#160;&#160;&#160;&#160;</text><text class="terminal-2128524604-r10" x="683.2" y="117.6" textLength="146.4" clip-path="url(#terminal-2128524604-line-4)">&#160;Please&#160;&#160;&#160;&#160;&#160;</text><text class="terminal-2128524604-r10" x="829.6" y="117.6" textLength="146.4" clip-path="url(#terminal-2128524604-line-4)">&#160;True&#160;&#160;&#160;&#160;&#160;&#160;&#160;</text><text class="terminal-2128524604-r10" x="976" y="117.6" textLength="134.2" clip-path="url(#terminal-2128524604-line-4)">&#160;German&#160;A1&#160;</text><text class="terminal-2128524604-r3" x="1390.8" y="117.6" textLength="12.2" clip-path="url(#terminal-2128524604-line-4)">│</text><text class="terminal-2128524604-r1" x="1403" y="117.6" textLength="12.2" clip-path="url(#terminal-2128524604-line-4)">
</text><text class="terminal-2128524604-r3" x="0" y="142" textLength="12.2" clip-path="url(#terminal-2128524604-line-5)">│</text><text class="terminal-2128524604-r7" x="12.2" y="142" textLength="36.6" clip-path="url(#terminal-2128524604-line-5)">├─&#160;</text><text class="terminal-2128524604-r4" x="48.8" y="142" textLength="97.6" clip-path="url(#terminal-2128524604-line-5)">Hiragana</text><text class="terminal-2128524604-r3" x="475.8" y="142" textLength="12.2" clip-path="url(#terminal-2128524604-line-5)">│</text><text class="terminal-2128524604-r3" x="488" y="142" textLength="12.2" clip-path="url(#terminal-2128524604-line-5)">│</text><text class="terminal-2128524604-r10" x="500.2" y="142" textLength="183" clip-path="url(#terminal-2128524604-line-5)">&#160;das&#160;Büro&#160;&#160;&#160;&#160;&#160;&#160;</text><text class="terminal-2128524604-r10" x="683.2" y="142" textLength="146.4" clip-path="url(#terminal-2128524604-line-5)">&#160;Office&#160;&#160;&#160;&#160;&#160;</text><text class="terminal-2128524604-r10" x="829.6" y="142" textLength="146.4" clip-path="url(#terminal-2128524604-line-5)">&#160;True&#160;&#160;&#160;&#160;&#160;&#160;&#160;</text><text class="terminal-2128524604-r10" x="976" y="142" textLength="134.2" clip-path="url(#terminal-2128524604-line-5)">&#160;German&#160;A1&#160;</text><text class="terminal-2128524604-r3" x="1390.8" y="142" textLength="12.2" clip-path="url(#terminal-2128524604-line-5)">│</text><text class="terminal-2128524604-r1" x="1403" y="142" textLength="12.2" clip-path="url(#terminal-2128524604-line-5)">
</text><text class="terminal-2128524604-r3" x="0" y="166.4" textLength="12.2" clip-path="url(#terminal-2128524604-line-6)">│</text><text class="terminal-2128524604-r7" x="12.2" y="166.4" textLength="36.6" clip-path="url(#terminal-2128524604-line-6)">└─&#160;</text><text class="terminal-2128524604-r4" x="48.8" y="166.4" textLength="97.6" clip-path="url(#terminal-2128524604-line-6)">Katakana</text><text class="terminal-2128524604-r3" x="475.8" y="166.4" textLength="12.2" clip-path="url(#terminal-2128524604-line-6)">│</text><text class="terminal-2128524604-r3" x="488" y="166.4" textLength="12.2" clip-path="url(#terminal-2128524604-line-6)">│</text><text class="terminal-2128524604-r10" x="500.2" y="166.4" textLength="183" clip-path="url(#terminal-2128524604-line-6)">&#160;der&#160;Bus&#160;&#160;&#160;&#160;&#160;&#160;&#160;</text><text class="terminal-2128524604-r10" x="683.2" y="166.4" textLength="146.4" clip-path="url(#terminal-2128524604-line-6)">&#160;Bus&#160;&#160;&#160;&#160;&#160;&#160;&#160;&#160;</text><text class="terminal-2128524604-r10" x="829.6" y="166.4" textLength="146.4" clip-path="url(#terminal-2128524604-line-6)">&#160;True&#160;&#160;&#160;&#160;&#160;&#160;&#160;</text><text class="terminal-2128524604-r10" x="976" y="166.4" textLength="134.2" clip-path="url(#terminal-2128524604-line-6)">&#160;German&#160;A1&#160;</text><text class="terminal-2128524604-r3" x="1390.8" y="166.4" textLength="12.2" clip-path="url(#terminal-2128524604-line-6)">│</text><text class="terminal-2128524604-r1" x="1403" y="166.4" textLength="12.2" clip-path="url(#terminal-2128524604-line-6)">
</text><text class="terminal-2128524604-r3" x="0" y="190.8" textLength="12.2" clip-path="url(#terminal-2128524604-line-7)">│</text><text class="terminal-2128524604-r3" x="475.8" y="190.8" textLength="12.2" clip-path="url(#terminal-2128524604-line-7)">│</text><text class="terminal-2128524604-r3" x="488" y="190.8" textLength="12.2" clip-path="url(#terminal-2128524604-line-7)">│</text><text class="terminal-2128524604-r10" x="500.2" y="190.8" textLength="183" clip-path="url(#terminal-2128524604-line-7)">&#160;der&#160;Computer&#160;&#160;</text><text class="terminal-2128524604-r10" x="683.2" y="190.8" textLength="146.4" clip-path="url(#terminal-2128524604-line-7)">&#160;Computer&#160;&#160;&#160;</text><text class="terminal-2128524604-r10" x="829.6" y="190.8" textLength="146.4" clip-path="url(#terminal-2128524604-line-7)">&#160;False&#160;&#160;&#160;&#160;&#160;&#160;</text><text class="terminal-2128524604-r10" x="976" y="190.8" textLength="134.2" clip-path="url(#terminal-2128524604-line-7)">&#160;German&#160;A1&#160;</text><text class="terminal-2128524604-r3" x="1390.8" y="190.8" textLength="12.2" clip-path="url(#terminal-2128524604-line-7)">│</text><text class="terminal-2128524604-r1" x="1403" y="190.8" textLength="12.2" clip-path="url(#terminal-2128524604-line-7)">
</text><text class="terminal-2128524604-r3" x="0" y="215.2" textLength="12.2" clip-path="url(#terminal-2128524604-line-8)">│</text><text class="terminal-2128524604-r3" x="475.8" y="215.2" textLength="12.2" clip-path="url(#terminal-2128524604-line-8)">│</text><text class="terminal-2128524604-r3" x="488" y="215.2" textLength="12.2" clip-path="url(#terminal-2128524604-line-8)">│</text><text class="terminal-2128524604-r10" x="500.2" y="215.2" textLength="183" clip-path="url(#terminal-2128524604-line-8)">&#160;die&#160;Familie&#160;&#160;&#160;</text><text class="terminal-2128524604-r10" x="683.2" y="215.2" textLength="146.4" clip-path="url(#terminal-2128524604-line-8)">&#160;Family&#160;&#160;&#160;&#160;&#160;</text><text class="terminal-2128524604-r10" x="829.6" y="215.2" textLength="146.4" clip-path="url(#terminal-2128524604-line-8)">&#160;True&#160;&#160;&#160;&#160;&#160;&#160;&#160;</text><text class="terminal-2128524604-r10" x="976" y="215.2" textLength="134.2" clip-path="url(#terminal-2128524604-line-8)">&#160;German&#160;A1&#160;</text><text class="terminal-2128524604-r3" x="1390.8" y="215.2" textLength="12.2" clip-path="url(#terminal-2128524604-line-8)">│</text><text class="terminal-2128524604-r1" x="1403" y="215.2" textLength="12.2" clip-path="url(#terminal-2128524604-line-8)">
</text><text class="terminal-2128524604-r3" x="0" y="239.6" textLength="12.2" clip-path="url(#terminal-2128524604-line-9)">│</text><text class="terminal-2128524604-r3" x="475.8" y="239.6" textLength="12.2" clip-path="url(#terminal-2128524604-line-9)">│</text><text class="terminal-2128524604-r3" x="488" y="239.6" textLength="12.2" clip-path="url(#terminal-2128524604-line-9)">│</text><text class="terminal-2128524604-r10" x="500.2" y="239.6" textLength="183" clip-path="url(#terminal-2128524604-line-9)">&#160;der&#160;Flughafen&#160;</text><text class="terminal-2128524604-r10" x="683.2" y="239.6" textLength="146.4" clip-path="url(#terminal-2128524604-line-9)">&#160;Airport&#160;&#160;&#160;&#160;</text><text class="terminal-2128524604-r10" x="829.6" y="239.6" textLength="146.4" clip-path="url(#terminal-2128524604-line-9)">&#160;True&#160;&#160;&#160;&#160;&#160;&#160;&#160;</text><text class="terminal-2128524604-r10" x="976" y="239.6" textLength="134.2" clip-path="url(#terminal-2128524604-line-9)">&#160;German&#160;A1&#160;</text><text class="terminal-2128524604-r3" x="1390.8" y="239.6" textLength="12.2" clip-path="url(#terminal-2128524604-line-9)">│</text><text class="terminal-2128524604-r1" x="1403" y="239.6" textLength="12.2" clip-path="url(#terminal-2128524604-line-9)">
</text><text class="terminal-2128524604-r3" x="0" y="264" textLength="12.2" clip-path="url(#terminal-2128524604-line-10)">│</text><text class="terminal-2128524604-r3" x="475.8" y="264" textLength="12.2" clip-path="url(#terminal-2128524604-line-10)">│</text><text class="terminal-2128524604-r3" x="488" y="264" textLength="12.2" clip-path="url(#terminal-2128524604-line-10)">│</text><text class="terminal-2128524604-r10" x="500.2" y="264" textLength="183" clip-path="url(#terminal-2128524604-line-10)">&#160;die&#160;Gitarre&#160;&#160;&#160;</text><text class="terminal-2128524604-r10" x="683.2" y="264" textLength="146.4" clip-path="url(#terminal-2128524604-line-10)">&#160;Guitar&#160;&#160;&#160;&#160;&#160;</text><text class="terminal-2128524604-r10" x="829.6" y="264" textLength="146.4" clip-path="url(#terminal-2128524604-line-10)">&#160;True&#160;&#160;&#160;&#160;&#160;&#160;&#160;</text><text class="terminal-2128524604-r10" x="976" y="264" textLength="134.2" clip-path="url(#terminal-2128524604-line-10)">&#160;German&#160;A1&#160;</text><text class="terminal-2128524604-r3" x="1390.8" y="264" textLength="12.2" clip-path="url(#terminal-2128524604-line-10)">│</text><text class="terminal-2128524604-r1" x="1403" y="264" textLength="12.2" clip-path="url(#terminal-2128524604-line-10)">
</text><text class="terminal-2128524604-r3" x="0" y="288.4" textLength="12.2" clip-path="url(#terminal-2128524604-line-11)">│</text><text class="terminal-2128524604-r3" x="475.8" y="288.4" textLength="12.2" clip-path="url(#terminal-2128524604-line-11)">│</text><text class="terminal-2128524604-r3" x="488" y="288.4" textLength="12.2" clip-path="url(#terminal-2128524604-line-11)">│</text><text class="terminal-2128524604-r10" x="500.2" y="288.4" textLength="183" clip-path="url(#terminal-2128524604-line-11)">&#160;der&#160;Kaffee&#160;&#160;&#160;&#160;</text><text class="terminal-2128524604-r10" x="683.2" y="288.4" textLength="146.4" clip-path="url(#terminal-2128524604-line-11)">&#160;Coffee&#160;&#160;&#160;&#160;&#160;</text><text class="terminal-2128524604-r10" x="829.6" y="288.4" textLength="146.4" clip-path="url(#terminal-2128524604-line-11)">&#160;True&#160;&#160;&#160;&#160;&#160;&#160;&#160;</text><text class="terminal-2128524604-r10" x="976" y="288.4" textLength="134.2" clip-path="url(#terminal-2128524604-line-11)">&#160;German&#160;A1&#160;</text><text class="terminal-2128524604-r3" x="1390.8" y="288.4" textLength="12.2" clip-path="url(#terminal-2128524604-line-11)">│</text><text class="terminal-2128524604-r1" x="1403" y="288.4" textLength="12.2" clip-path="url(#terminal-2128524604-line-11)">
</text><text class="terminal-2128524604-r3" x="0" y="312.8" textLength="12.2" clip-path="url(#terminal-2128524604-line-12)">│</text><text class="terminal-2128524604-r3" x="475.8" y="312.8" textLength="12.2" clip-path="url(#terminal-2128524604-line-12)">│</text><text class="terminal-2128524604-r3" x="488" y="312.8" textLength="12.2" clip-path="url(#terminal-2128524604-line-12)">│</text><text class="terminal-2128524604-r10" x="500.2" y="312.8" textLength="183" clip-path="url(#terminal-2128524604-line-12)">&#160;Kein&#160;Problem&#160;&#160;</text><text class="terminal-2128524604-r10" x="683.2" y="312.8" textLength="146.4" clip-path="url(#terminal-2128524604-line-12)">&#160;No&#160;problem&#160;</text><text class="terminal-2128524604-r10" x="829.6" y="312.8" textLength="146.4" clip-path="url(#terminal-2128524604-line-12)">&#160;True&#160;&#160;&#160;&#160;&#160;&#160;&#160;</text><text class="terminal-2128524604-r10" x="976" y="312.8" textLength="134.2" clip-path="url(#terminal-2128524604-line-12)">&#160;German&#160;A1&#160;</text><text class="terminal-2128524604-r3" x="1390.8" y="312.8" textLength="12.2" clip-path="url(#terminal-2128524604-line-12)">│</text><text class="terminal-2128524604-r1" x="1403" y="312.8" textLength="12.2" clip-path="url(#terminal-2128524604-line-12)">
</text><text class="terminal-2128524604-r3" x="0" y="337.2" textLength="12.2" clip-path="url(#terminal-2128524604-line-13)">│</text><text class="terminal-2128524604-r3" x="475.8" y="337.2" textLength="12.2" clip-path="url(#terminal-2128524604-line-13)">│</text><text class="terminal-2128524604-r3" x="488" y="337.2" textLength="12.2" clip-path="url(#terminal-2128524604-line-13)">│</text><text class="terminal-2128524604-r3" x="1390.8" y="337.2" textLength="12.2" clip-path="url(#terminal-2128524604-line-13)">│</text><text class="terminal-2128524604-r1" x="1403" y="337.2" textLength="12.2" clip-path="url(#terminal-2128524604-line-13)">
</text><text class="terminal-2128524604-r3" x="0" y="361.6" textLength="12.2" clip-path="url(#terminal-2128524604-line-14)">│</text><text class="terminal-2128524604-r3" x="475.8" y="361.6" textLength="12.2" clip-path="url(#terminal-2128524604-line-14)">│</text><text class="terminal-2128524604-r3" x="488" y="361.6" textLength="12.2" clip-path="url(#terminal-2128524604-line-14)">│</text><text class="terminal-2128524604-r3" x="1390.8" y="361.6" textLength="12.2" clip-path="url(#terminal-2128524604-line-14)">│</text><text class="terminal-2128524604-r1" x="1403" y="361.6" textLength="12.2" clip-path="url(#terminal-2128524604-line-14)">
</text><text class="terminal-2128524604-r3" x="0" y="386" textLength="12.2" clip-path="url(#terminal-2128524604-line-15)">│</text><text class="terminal-2128524604-r3" x="475.8" y="386" textLength="12.2" clip-path="url(#terminal-2128524604-line-15)">│</text><text class="terminal-2128524604-r3" x="488" y="386" textLength="12.2" clip-path="url(#terminal-2128524604-line-15)">│</text><text class="terminal-2128524604-r3" x="1390.8" y="386" textLength="12.2" clip-path="url(#terminal-2128524604-line-15)">│</text><text class="terminal-2128524604-r1" x="1403" y="386" textLength="12.2" clip-path="url(#terminal-2128524604-line-15)">
</text><text class="terminal-2128524604-r3" x="0" y="410.4" textLength="12.2" clip-path="url(#terminal-2128524604-line-16)">│</text><text class="terminal-2128524604-r3" x="475.8" y="410.4" textLength="12.2" clip-path="url(#terminal-2128524604-line-16)">│</text><text class="terminal-2128524604-r3" x="488" y="410.4" textLength="12.2" clip-path="url(#terminal-2128524604-line-16)">│</text><text class="terminal-2128524604-r3" x="1390.8" y="410.4" textLength="12.2" clip-path="url(#terminal-2128524604-line-16)">│</text><text class="terminal-2128524604-r1" x="1403" y="410.4" textLength="12.2" clip-path="url(#terminal-2128524604-line-16)">
</text><text class="terminal-2128524604-r3" x="0" y="434.8" textLength="12.2" clip-path="url(#terminal-2128524604-line-17)">└</text><text class="terminal-2128524604-r3" x="12.2" y="434.8" textLength="463.6" clip-path="url(#terminal-2128524604-line-17)">──────────────────────────────────────</text><text class="terminal-2128524604-r3" x="475.8" y="434.8" textLength="12.2" clip-path="url(#terminal-2128524604-line-17)">┘</text><text class="terminal-2128524604-r3" x="488" y="434.8" textLength="12.2" clip-path="url(#terminal-2128524604-line-17)">└</text><text class="terminal-2128524604-r3" x="500.2" y="434.8" textLength="890.6" clip-path="url(#terminal-2128524604-line-17)">─────────────────────────────────────────────────────────────────────────</text><text class="terminal-2128524604-r3" x="1390.8" y="434.8" textLength="12.2" clip-path="url(#terminal-2128524604-line-17)">┘</text><text class="terminal-2128524604-r1" x="1403" y="434.8" textLength="12.2" clip-path="url(#terminal-2128524604-line-17)">
</text><text class="terminal-2128524604-r11" x="0" y="459.2" textLength="36.6" clip-path="url(#terminal-2128524604-line-18)">&#160;⌫&#160;</text><text class="terminal-2128524604-r12" x="36.6" y="459.2" textLength="134.2" clip-path="url(#terminal-2128524604-line-18)">Delete&#160;Deck</text><text class="terminal-2128524604-r11" x="183" y="459.2" textLength="48.8" clip-path="url(#terminal-2128524604-line-18)">&#160;^e&#160;</text><text class="terminal-2128524604-r12" x="231.8" y="459.2" textLength="109.8" clip-path="url(#terminal-2128524604-line-18)">Edit&#160;Deck</text><text class="terminal-2128524604-r11" x="353.8" y="459.2" textLength="48.8" clip-path="url(#terminal-2128524604-line-18)">&#160;f1&#160;</text><text class="terminal-2128524604-r12" x="402.6" y="459.2" textLength="48.8" clip-path="url(#terminal-2128524604-line-18)">Help</text><text class="terminal-2128524604-r11" x="463.6" y="459.2" textLength="48.8" clip-path="url(#terminal-2128524604-line-18)">&#160;^q&#160;</text><text class="terminal-2128524604-r12" x="512.4" y="459.2" textLength="48.8" clip-path="url(#terminal-2128524604-line-18)">Quit</text><text class="terminal-2128524604-r11" x="573.4" y="459.2" textLength="48.8" clip-path="url(#terminal-2128524604-line-18)">&#160;^s&#160;</text><text class="terminal-2128524604-r12" x="622.2" y="459.2" textLength="146.4" clip-path="url(#terminal-2128524604-line-18)">Start&#160;Review</text><text class="terminal-2128524604-r11" x="780.8" y="459.2" textLength="48.8" clip-path="url(#terminal-2128524604-line-18)">&#160;^n&#160;</text><text class="terminal-2128524604-r12" x="829.6" y="459.2" textLength="97.6" clip-path="url(#terminal-2128524604-line-18)">Add&#160;Deck</text><text class="terminal-2128524604-r11" x="939.4" y="459.2" textLength="48.8" clip-path="url(#terminal-2128524604-line-18)">&#160;^a&#160;</text><text class="terminal-2128524604-r12" x="988.2" y="459.2" textLength="158.6" clip-path="url(#terminal-2128524604-line-18)">Add&#160;Flashcard</text>
    </g>
    </g>
</svg>
