<svg class="rich-terminal" viewBox="0 0 1421 513.5999999999999" xmlns="http://www.w3.org/2000/svg">
    <!-- Generated with Rich https://www.textualize.io -->
    <style>

    @font-face {
        font-family: "Fira Code";
        src: local("FiraCode-Regular"),
                url("https://cdnjs.cloudflare.com/ajax/libs/firacode/6.2.0/woff2/FiraCode-Regular.woff2") format("woff2"),
                url("https://cdnjs.cloudflare.com/ajax/libs/firacode/6.2.0/woff/FiraCode-Regular.woff") format("woff");
        font-style: normal;
        font-weight: 400;
    }
    @font-face {
        font-family: "Fira Code";
        src: local("FiraCode-Bold"),
                url("https://cdnjs.cloudflare.com/ajax/libs/firacode/6.2.0/woff2/FiraCode-Bold.woff2") format("woff2"),
                url("https://cdnjs.cloudflare.com/ajax/libs/firacode/6.2.0/woff/FiraCode-Bold.woff") format("woff");
        font-style: bold;
        font-weight: 700;
    }

    .terminal-1673814280-matrix {
        font-family: Fira Code, monospace;
        font-size: 20px;
        line-height: 24.4px;
        font-variant-east-asian: full-width;
    }

    .terminal-1673814280-title {
        font-size: 18px;
        font-weight: bold;
        font-family: arial;
    }

    .terminal-1673814280-r1 { fill: #e0e0e0 }
.terminal-1673814280-r2 { fill: #656565 }
.terminal-1673814280-r3 { fill: #c5c8c6 }
.terminal-1673814280-r4 { fill: #704d1c }
.terminal-1673814280-r5 { fill: #636669;font-weight: bold }
.terminal-1673814280-r6 { fill: #636669 }
.terminal-1673814280-r7 { fill: #0a3e21 }
.terminal-1673814280-r8 { fill: #18130c;font-weight: bold }
.terminal-1673814280-r9 { fill: #fea62b }
.terminal-1673814280-r10 { fill: #18130c }
.terminal-1673814280-r11 { fill: #646464 }
.terminal-1673814280-r12 { fill: #e1e1e1 }
.terminal-1673814280-r13 { fill: #4ebf71;font-weight: bold }
.terminal-1673814280-r14 { fill: #939393;font-weight: bold }
.terminal-1673814280-r15 { fill: #14191f }
.terminal-1673814280-r16 { fill: #704d1c;font-weight: bold }
.terminal-1673814280-r17 { fill: #4d4e4f }
    </style>

    <defs>
    <clipPath id="terminal-1673814280-clip-terminal">
      <rect x="0" y="0" width="1402.0" height="462.59999999999997" />
    </clipPath>
    <clipPath id="terminal-1673814280-line-0">
    <rect x="0" y="1.5" width="1403" height="24.65"/>
            </clipPath>
<clipPath id="terminal-1673814280-line-1">
    <rect x="0" y="25.9" width="1403" height="24.65"/>
            </clipPath>
<clipPath id="terminal-1673814280-line-2">
    <rect x="0" y="50.3" width="1403" height="24.65"/>
            </clipPath>
<clipPath id="terminal-1673814280-line-3">
    <rect x="0" y="74.7" width="1403" height="24.65"/>
            </clipPath>
<clipPath id="terminal-1673814280-line-4">
    <rect x="0" y="99.1" width="1403" height="24.65"/>
            </clipPath>
<clipPath id="terminal-1673814280-line-5">
    <rect x="0" y="123.5" width="1403" height="24.65"/>
            </clipPath>
<clipPath id="terminal-1673814280-line-6">
    <rect x="0" y="147.9" width="1403" height="24.65"/>
            </clipPath>
<clipPath id="terminal-1673814280-line-7">
    <rect x="0" y="172.3" width="1403" height="24.65"/>
            </clipPath>
<clipPath id="terminal-1673814280-line-8">
    <rect x="0" y="196.7" width="1403" height="24.65"/>
            </clipPath>
<clipPath id="terminal-1673814280-line-9">
    <rect x="0" y="221.1" width="1403" height="24.65"/>
            </clipPath>
<clipPath id="terminal-1673814280-line-10">
    <rect x="0" y="245.5" width="1403" height="24.65"/>
            </clipPath>
<clipPath id="terminal-1673814280-line-11">
    <rect x="0" y="269.9" width="1403" height="24.65"/>
            </clipPath>
<clipPath id="terminal-1673814280-line-12">
    <rect x="0" y="294.3" width="1403" height="24.65"/>
            </clipPath>
<clipPath id="terminal-1673814280-line-13">
    <rect x="0" y="318.7" width="1403" height="24.65"/>
            </clipPath>
<clipPath id="terminal-1673814280-line-14">
    <rect x="0" y="343.1" width="1403" height="24.65"/>
            </clipPath>
<clipPath id="terminal-1673814280-line-15">
    <rect x="0" y="367.5" width="1403" height="24.65"/>
            </clipPath>
<clipPath id="terminal-1673814280-line-16">
    <rect x="0" y="391.9" width="1403" height="24.65"/>
            </clipPath>
<clipPath id="terminal-1673814280-line-17">
    <rect x="0" y="416.3" width="1403" height="24.65"/>
            </clipPath>
    </defs>

    <rect fill="#292929" stroke="rgba(255,255,255,0.35)" stroke-width="1" x="1" y="1" width="1419" height="511.6" rx="8"/><text class="terminal-1673814280-title" fill="#c5c8c6" text-anchor="middle" x="709" y="27">Memotica</text>
            <g transform="translate(26,22)">
            <circle cx="0" cy="0" r="7" fill="#ff5f57"/>
            <circle cx="22" cy="0" r="7" fill="#febc2e"/>
            <circle cx="44" cy="0" r="7" fill="#28c840"/>
            </g>
        
    <g transform="translate(9, 41)" clip-path="url(#terminal-1673814280-clip-terminal)">
    <rect fill="#1a1a1a" x="0" y="1.5" width="12.2" height="24.65" shape-rendering="crispEdges"/><rect fill="#1a1a1a" x="12.2" y="1.5" width="12.2" height="24.65" shape-rendering="crispEdges"/><rect fill="#1a1a1a" x="24.4" y="1.5" width="61" height="24.65" shape-rendering="crispEdges"/><rect fill="#1a1a1a" x="85.4" y="1.5" width="12.2" height="24.65" shape-rendering="crispEdges"/><rect fill="#1a1a1a" x="97.6" y="1.5" width="536.8" height="24.65" shape-rendering="crispEdges"/><rect fill="#1a1a1a" x="634.4" y="1.5" width="97.6" height="24.65" shape-rendering="crispEdges"/><rect fill="#1a1a1a" x="732" y="1.5" width="549" height="24.65" shape-rendering="crispEdges"/><rect fill="#1a1a1a" x="1281" y="1.5" width="12.2" height="24.65" shape-rendering="crispEdges"/><rect fill="#1a1a1a" x="1293.2" y="1.5" width="0" height="24.65" shape-rendering="crispEdges"/><rect fill="#1a1a1a" x="1293.2" y="1.5" width="97.6" height="24.65" shape-rendering="crispEdges"/><rect fill="#1a1a1a" x="1390.8" y="1.5" width="12.2" height="24.65" shape-rendering="crispEdges"/><rect fill="#191b1d" x="0" y="25.9" width="12.2" height="24.65" shape-rendering="crispEdges"/><rect fill="#191b1d" x="12.2" y="25.9" width="12.2" height="24.65" shape-rendering="crispEdges"/><rect fill="#191b1d" x="24.4" y="25.9" width="85.4" height="24.65" shape-rendering="crispEdges"/><rect fill="#191b1d" x="109.8" y="25.9" width="366" height="24.65" shape-rendering="crispEdges"/><rect fill="#191b1d" x="475.8" y="25.9" width="12.2" height="24.65" shape-rendering="crispEdges"/><rect fill="#161616" x="488" y="25.9" width="12.2" height="24.65" shape-rendering="crispEdges"/><rect fill="#161616" x="500.2" y="25.9" width="12.2" height="24.65" shape-rendering="crispEdges"/><rect fill="#161616" x="512.4" y="25.9" width="146.4" height="24.65" shape-rendering="crispEdges"/><rect fill="#161616" x="658.8" y="25.9" width="732" height="24.65" shape-rendering="crispEdges"/><rect fill="#161616" x="1390.8" y="25.9" width="12.2" height="24.65" shape-rendering="crispEdges"/><rect fill="#191b1d" x="0" y="50.3" width="12.2" height="24.65" shape-rendering="crispEdges"/><rect fill="#191b1d" x="12.2" y="50.3" width="24.4" height="24.65" shape-rendering="crispEdges"/><rect fill="#191b1d" x="36.6" y="50.3" width="12.2" height="24.65" shape-rendering="crispEdges"/><rect fill="#191b1d" x="48.8" y="50.3" width="427" height="24.65" shape-rendering="crispEdges"/><rect fill="#191b1d" x="475.8" y="50.3" width="12.2" height="24.65" shape-rendering="crispEdges"/><rect fill="#161616" x="488" y="50.3" width="12.2" height="24.65" shape-rendering="crispEdges"/><rect fill="#0a263a" x="500.2" y="50.3" width="183" height="24.65" shape-rendering="crispEdges"/><rect fill="#0a263a" x="683.2" y="50.3" width="146.4" height="24.65" shape-rendering="crispEdges"/><rect fill="#0a263a" x="829.6" y="50.3" width="146.4" height="24.65" shape-rendering="crispEdges"/><rect fill="#0a263a" x="976" y="50.3" width="134.2" height="24.65" shape-rendering="crispEdges"/><rect fill="#0d2231" x="1110.2" y="50.3" width="280.6" height="24.65" shape-rendering="crispEdges"/><rect fill="#161616" x="1390.8" y="50.3" width="12.2" height="24.65" shape-rendering="crispEdges"/><rect fill="#191b1d" x="0" y="74.7" width="12.2" height="24.65" shape-rendering="crispEdges"/><rect fill="#191b1d" x="12.2" y="74.7" width="36.6" height="24.65" shape-rendering="crispEdges"/><rect fill="#704d1c" x="48.8" y="74.7" width="109.8" height="24.65" shape-rendering="crispEdges"/><rect fill="#191b1d" x="158.6" y="74.7" width="170.8" height="24.65" shape-rendering="crispEdges"/><rect fill="#1e1e1e" x="329.4" y="74.7" width="12.2" height="24.65" shape-rendering="crispEdges"/><rect fill="#1e1e1e" x="341.6" y="74.7" width="12.2" height="24.65" shape-rendering="crispEdges"/><rect fill="#1e1e1e" x="353.8" y="74.7" width="73.2" height="24.65" shape-rendering="crispEdges"/><rect fill="#1e1e1e" x="427" y="74.7" width="622.2" height="24.65" shape-rendering="crispEdges"/><rect fill="#1e1e1e" x="1049.2" y="74.7" width="12.2" height="24.65" shape-rendering="crispEdges"/><rect fill="#704d1c" x="1061.4" y="74.7" width="48.8" height="24.65" shape-rendering="crispEdges"/><rect fill="#161616" x="1110.2" y="74.7" width="280.6" height="24.65" shape-rendering="crispEdges"/><rect fill="#161616" x="1390.8" y="74.7" width="12.2" height="24.65" shape-rendering="crispEdges"/><rect fill="#191b1d" x="0" y="99.1" width="12.2" height="24.65" shape-rendering="crispEdges"/><rect fill="#191b1d" x="12.2" y="99.1" width="36.6" height="24.65" shape-rendering="crispEdges"/><rect fill="#191b1d" x="48.8" y="99.1" width="109.8" height="24.65" shape-rendering="crispEdges"/><rect fill="#191b1d" x="158.6" y="99.1" width="170.8" height="24.65" shape-rendering="crispEdges"/><rect fill="#1e1e1e" x="329.4" y="99.1" width="12.2" height="24.65" shape-rendering="crispEdges"/><rect fill="#1e1e1e" x="341.6" y="99.1" width="24.4" height="24.65" shape-rendering="crispEdges"/><rect fill="#1e1e1e" x="366" y="99.1" width="634.4" height="24.65" shape-rendering="crispEdges"/><rect fill="#1e1e1e" x="1000.4" y="99.1" width="24.4" height="24.65" shape-rendering="crispEdges"/><rect fill="#23568b" x="1024.8" y="99.1" width="24.4" height="24.65" shape-rendering="crispEdges"/><rect fill="#1e1e1e" x="1049.2" y="99.1" width="12.2" height="24.65" shape-rendering="crispEdges"/><rect fill="#161616" x="1061.4" y="99.1" width="48.8" height="24.65" shape-rendering="crispEdges"/><rect fill="#161616" x="1110.2" y="99.1" width="280.6" height="24.65" shape-rendering="crispEdges"/><rect fill="#161616" x="1390.8" y="99.1" width="12.2" height="24.65" shape-rendering="crispEdges"/><rect fill="#191b1d" x="0" y="123.5" width="12.2" height="24.65" shape-rendering="crispEdges"/><rect fill="#191b1d" x="12.2" y="123.5" width="36.6" height="24.65" shape-rendering="crispEdges"/><rect fill="#191b1d" x="48.8" y="123.5" width="97.6" height="24.65" shape-rendering="crispEdges"/><rect fill="#191b1d" x="146.4" y="123.5" width="183" height="24.65" shape-rendering="crispEdges"/><rect fill="#1e1e1e" x="329.4" y="123.5" width="12.2" height="24.65" shape-rendering="crispEdges"/><rect fill="#1e1e1e" x="341.6" y="123.5" width="24.4" height="24.65" shape-rendering="crispEdges"/><rect fill="#1e1e1e" x="366" y="123.5" width="97.6" height="24.65" shape-rendering="crispEdges"/><rect fill="#1e1e1e" x="463.6" y="123.5" width="536.8" height="24.65" shape-rendering="crispEdges"/><rect fill="#1e1e1e" x="1000.4" y="123.5" width="24.4" height="24.65" shape-rendering="crispEdges"/><rect fill="#23568b" x="1024.8" y="123.5" width="24.4" height="24.65" shape-rendering="crispEdges"/><rect fill="#1e1e1e" x="1049.2" y="123.5" width="12.2" height="24.65" shape-rendering="crispEdges"/><rect fill="#161616" x="1061.4" y="123.5" width="48.8" height="24.65" shape-rendering="crispEdges"/><rect fill="#161616" x="1110.2" y="123.5" width="280.6" height="24.65" shape-rendering="crispEdges"/><rect fill="#161616" x="1390.8" y="123.5" width="12.2" height="24.65" shape-rendering="crispEdges"/><rect fill="#191b1d" x="0" y="147.9" width="12.2" height="24.65" shape-rendering="crispEdges"/><rect fill="#191b1d" x="12.2" y="147.9" width="36.6" height="24.65" shape-rendering="crispEdges"/><rect fill="#191b1d" x="48.8" y="147.9" width="97.6" height="24.65" shape-rendering="crispEdges"/><rect fill="#191b1d" x="146.4" y="147.9" width="183" height="24.65" shape-rendering="crispEdges"/><rect fill="#1e1e1e" x="329.4" y="147.9" width="12.2" height="24.65" shape-rendering="crispEdges"/><rect fill="#1e1e1e" x="341.6" y="147.9" width="24.4" height="24.65" shape-rendering="crispEdges"/><rect fill="#1e1e1e" x="366" y="147.9" width="634.4" height="24.65" shape-rendering="crispEdges"/><rect fill="#1e1e1e" x="1000.4" y="147.9" width="24.4" height="24.65" shape-rendering="crispEdges"/><rect fill="#23568b" x="1024.8" y="147.9" width="24.4" height="24.65" shape-rendering="crispEdges"/><rect fill="#1e1e1e" x="1049.2" y="147.9" width="12.2" height="24.65" shape-rendering="crispEdges"/><rect fill="#161616" x="1061.4" y="147.9" width="48.8" height="24.65" shape-rendering="crispEdges"/><rect fill="#161616" x="1110.2" y="147.9" width="280.6" height="24.65" shape-rendering="crispEdges"/><rect fill="#161616" x="1390.8" y="147.9" width="12.2" height="24.65" shape-rendering="crispEdges"/><rect fill="#191b1d" x="0" y="172.3" width="12.2" height="24.65" shape-rendering="crispEdges"/><rect fill="#191b1d" x="12.2" y="172.3" width="317.2" height="24.65" shape-rendering="crispEdges"/><rect fill="#1e1e1e" x="329.4" y="172.3" width="12.2" height="24.65" shape-rendering="crispEdges"/><rect fill="#1e1e1e" x="341.6" y="172.3" width="24.4" height="24.65" shape-rendering="crispEdges"/><rect fill="#1e1e1e" x="366" y="172.3" width="24.4" height="24.65" shape-rendering="crispEdges"/><rect fill="#1e1e1e" x="390.4" y="172.3" width="36.6" height="24.65" shape-rendering="crispEdges"/><rect fill="#1e1e1e" x="427" y="172.3" width="183" height="24.65" shape-rendering="crispEdges"/><rect fill="#1e1e1e" x="610" y="172.3" width="390.4" height="24.65" shape-rendering="crispEdges"/><rect fill="#1e1e1e" x="1000.4" y="172.3" width="24.4" height="24.65" shape-rendering="crispEdges"/><rect fill="#23568b" x="1024.8" y="172.3" width="24.4" height="24.65" shape-rendering="crispEdges"/><rect fill="#1e1e1e" x="1049.2" y="172.3" width="12.2" height="24.65" shape-rendering="crispEdges"/><rect fill="#161616" x="1061.4" y="172.3" width="48.8" height="24.65" shape-rendering="crispEdges"/><rect fill="#161616" x="1110.2" y="172.3" width="280.6" height="24.65" shape-rendering="crispEdges"/><rect fill="#161616" x="1390.8" y="172.3" width="12.2" height="24.65" shape-rendering="crispEdges"/><rect fill="#191b1d" x="0" y="196.7" width="12.2" height="24.65" shape-rendering="crispEdges"/><rect fill="#191b1d" x="12.2" y="196.7" width="317.2" height="24.65" shape-rendering="crispEdges"/><rect fill="#1e1e1e" x="329.4" y="196.7" width="12.2" height="24.65" shape-rendering="crispEdges"/><rect fill="#1e1e1e" x="341.6" y="196.7" width="24.4" height="24.65" shape-rendering="crispEdges"/><rect fill="#1e1e1e" x="366" y="196.7" width="24.4" height="24.65" shape-rendering="crispEdges"/><rect fill="#1e1e1e" x="390.4" y="196.7" width="36.6" height="24.65" shape-rendering="crispEdges"/><rect fill="#1e1e1e" x="427" y="196.7" width="500.2" height="24.65" shape-rendering="crispEdges"/><rect fill="#1e1e1e" x="927.2" y="196.7" width="73.2" height="24.65" shape-rendering="crispEdges"/><rect fill="#1e1e1e" x="1000.4" y="196.7" width="24.4" height="24.65" shape-rendering="crispEdges"/><rect fill="#14191f" x="1024.8" y="196.7" width="24.4" height="24.65" shape-rendering="crispEdges"/><rect fill="#1e1e1e" x="1049.2" y="196.7" width="12.2" height="24.65" shape-rendering="crispEdges"/><rect fill="#161616" x="1061.4" y="196.7" width="48.8" height="24.65" shape-rendering="crispEdges"/><rect fill="#161616" x="1110.2" y="196.7" width="280.6" height="24.65" shape-rendering="crispEdges"/><rect fill="#161616" x="1390.8" y="196.7" width="12.2" height="24.65" shape-rendering="crispEdges"/><rect fill="#191b1d" x="0" y="221.1" width="12.2" height="24.65" shape-rendering="crispEdges"/><rect fill="#191b1d" x="12.2" y="221.1" width="317.2" height="24.65" shape-rendering="crispEdges"/><rect fill="#1e1e1e" x="329.4" y="221.1" width="12.2" height="24.65" shape-rendering="crispEdges"/><rect fill="#1e1e1e" x="341.6" y="221.1" width="24.4" height="24.65" shape-rendering="crispEdges"/><rect fill="#1e1e1e" x="366" y="221.1" width="24.4" height="24.65" shape-rendering="crispEdges"/><rect fill="#1e1e1e" x="390.4" y="221.1" width="207.4" height="24.65" shape-rendering="crispEdges"/><rect fill="#1e1e1e" x="597.8" y="221.1" width="402.6" height="24.65" shape-rendering="crispEdges"/><rect fill="#1e1e1e" x="1000.4" y="221.1" width="24.4" height="24.65" shape-rendering="crispEdges"/><rect fill="#14191f" x="1024.8" y="221.1" width="24.4" height="24.65" shape-rendering="crispEdges"/><rect fill="#1e1e1e" x="1049.2" y="221.1" width="12.2" height="24.65" shape-rendering="crispEdges"/><rect fill="#161616" x="1061.4" y="221.1" width="48.8" height="24.65" shape-rendering="crispEdges"/><rect fill="#161616" x="1110.2" y="221.1" width="280.6" height="24.65" shape-rendering="crispEdges"/><rect fill="#161616" x="1390.8" y="221.1" width="12.2" height="24.65" shape-rendering="crispEdges"/><rect fill="#191b1d" x="0" y="245.5" width="12.2" height="24.65" shape-rendering="crispEdges"/><rect fill="#191b1d" x="12.2" y="245.5" width="317.2" height="24.65" shape-rendering="crispEdges"/><rect fill="#1e1e1e" x="329.4" y="245.5" width="12.2" height="24.65" shape-rendering="crispEdges"/><rect fill="#1e1e1e" x="341.6" y="245.5" width="24.4" height="24.65" shape-rendering="crispEdges"/><rect fill="#1e1e1e" x="366" y="245.5" width="634.4" height="24.65" shape-rendering="crispEdges"/><rect fill="#1e1e1e" x="1000.4" y="245.5" width="24.4" height="24.65" shape-rendering="crispEdges"/><rect fill="#14191f" x="1024.8" y="245.5" width="24.4" height="24.65" shape-rendering="crispEdges"/><rect fill="#1e1e1e" x="1049.2" y="245.5" width="12.2" height="24.65" shape-rendering="crispEdges"/><rect fill="#161616" x="1061.4" y="245.5" width="48.8" height="24.65" shape-rendering="crispEdges"/><rect fill="#161616" x="1110.2" y="245.5" width="280.6" height="24.65" shape-rendering="crispEdges"/><rect fill="#161616" x="1390.8" y="245.5" width="12.2" height="24.65" shape-rendering="crispEdges"/><rect fill="#191b1d" x="0" y="269.9" width="12.2" height="24.65" shape-rendering="crispEdges"/><rect fill="#191b1d" x="12.2" y="269.9" width="317.2" height="24.65" shape-rendering="crispEdges"/><rect fill="#1e1e1e" x="329.4" y="269.9" width="12.2" height="24.65" shape-rendering="crispEdges"/><rect fill="#1e1e1e" x="341.6" y="269.9" width="24.4" height="24.65" shape-rendering="crispEdges"/><rect fill="#1e1e1e" x="366" y="269.9" width="195.2" height="24.65" shape-rendering="crispEdges"/><rect fill="#1e1e1e" x="561.2" y="269.9" width="439.2" height="24.65" shape-rendering="crispEdges"/><rect fill="#1e1e1e" x="1000.4" y="269.9" width="24.4" height="24.65" shape-rendering="crispEdges"/><rect fill="#14191f" x="1024.8" y="269.9" width="24.4" height="24.65" shape-rendering="crispEdges"/><rect fill="#1e1e1e" x="1049.2" y="269.9" width="12.2" height="24.65" shape-rendering="crispEdges"/><rect fill="#161616" x="1061.4" y="269.9" width="48.8" height="24.65" shape-rendering="crispEdges"/><rect fill="#161616" x="1110.2" y="269.9" width="280.6" height="24.65" shape-rendering="crispEdges"/><rect fill="#161616" x="1390.8" y="269.9" width="12.2" height="24.65" shape-rendering="crispEdges"/><rect fill="#191b1d" x="0" y="294.3" width="12.2" height="24.65" shape-rendering="crispEdges"/><rect fill="#191b1d" x="12.2" y="294.3" width="317.2" height="24.65" shape-rendering="crispEdges"/><rect fill="#1e1e1e" x="329.4" y="294.3" width="12.2" height="24.65" shape-rendering="crispEdges"/><rect fill="#1e1e1e" x="341.6" y="294.3" width="24.4" height="24.65" shape-rendering="crispEdges"/><rect fill="#1e1e1e" x="366" y="294.3" width="634.4" height="24.65" shape-rendering="crispEdges"/><rect fill="#1e1e1e" x="1000.4" y="294.3" width="24.4" height="24.65" shape-rendering="crispEdges"/><rect fill="#14191f" x="1024.8" y="294.3" width="24.4" height="24.65" shape-rendering="crispEdges"/><rect fill="#1e1e1e" x="1049.2" y="294.3" width="12.2" height="24.65" shape-rendering="crispEdges"/><rect fill="#161616" x="1061.4" y="294.3" width="48.8" height="24.65" shape-rendering="crispEdges"/><rect fill="#161616" x="1110.2" y="294.3" width="280.6" height="24.65" shape-rendering="crispEdges"/><rect fill="#161616" x="1390.8" y="294.3" width="12.2" height="24.65" shape-rendering="crispEdges"/><rect fill="#191b1d" x="0" y="318.7" width="12.2" height="24.65" shape-rendering="crispEdges"/><rect fill="#191b1d" x="12.2" y="318.7" width="317.2" height="24.65" shape-rendering="crispEdges"/><rect fill="#1e1e1e" x="329.4" y="318.7" width="12.2" height="24.65" shape-rendering="crispEdges"/><rect fill="#1e1e1e" x="341.6" y="318.7" width="24.4" height="24.65" shape-rendering="crispEdges"/><rect fill="#1e1e1e" x="366" y="318.7" width="24.4" height="24.65" shape-rendering="crispEdges"/><rect fill="#1e1e1e" x="390.4" y="318.7" width="24.4" height="24.65" shape-rendering="crispEdges"/><rect fill="#1e1e1e" x="414.8" y="318.7" width="268.4" height="24.65" shape-rendering="crispEdges"/><rect fill="#1e1e1e" x="683.2" y="318.7" width="317.2" height="24.65" shape-rendering="crispEdges"/><rect fill="#1e1e1e" x="1000.4" y="318.7" width="24.4" height="24.65" shape-rendering="crispEdges"/><rect fill="#14191f" x="1024.8" y="318.7" width="24.4" height="24.65" shape-rendering="crispEdges"/><rect fill="#1e1e1e" x="1049.2" y="318.7" width="12.2" height="24.65" shape-rendering="crispEdges"/><rect fill="#161616" x="1061.4" y="318.7" width="329.4" height="24.65" shape-rendering="crispEdges"/><rect fill="#161616" x="1390.8" y="318.7" width="12.2" height="24.65" shape-rendering="crispEdges"/><rect fill="#191b1d" x="0" y="343.1" width="12.2" height="24.65" shape-rendering="crispEdges"/><rect fill="#191b1d" x="12.2" y="343.1" width="317.2" height="24.65" shape-rendering="crispEdges"/><rect fill="#1e1e1e" x="329.4" y="343.1" width="12.2" height="24.65" shape-rendering="crispEdges"/><rect fill="#1e1e1e" x="341.6" y="343.1" width="707.6" height="24.65" shape-rendering="crispEdges"/><rect fill="#1e1e1e" x="1049.2" y="343.1" width="12.2" height="24.65" shape-rendering="crispEdges"/><rect fill="#161616" x="1061.4" y="343.1" width="329.4" height="24.65" shape-rendering="crispEdges"/><rect fill="#161616" x="1390.8" y="343.1" width="12.2" height="24.65" shape-rendering="crispEdges"/><rect fill="#191b1d" x="0" y="367.5" width="12.2" height="24.65" shape-rendering="crispEdges"/><rect fill="#191b1d" x="12.2" y="367.5" width="463.6" height="24.65" shape-rendering="crispEdges"/><rect fill="#191b1d" x="475.8" y="367.5" width="12.2" height="24.65" shape-rendering="crispEdges"/><rect fill="#161616" x="488" y="367.5" width="12.2" height="24.65" shape-rendering="crispEdges"/><rect fill="#161616" x="500.2" y="367.5" width="890.6" height="24.65" shape-rendering="crispEdges"/><rect fill="#161616" x="1390.8" y="367.5" width="12.2" height="24.65" shape-rendering="crispEdges"/><rect fill="#191b1d" x="0" y="391.9" width="12.2" height="24.65" shape-rendering="crispEdges"/><rect fill="#191b1d" x="12.2" y="391.9" width="463.6" height="24.65" shape-rendering="crispEdges"/><rect fill="#191b1d" x="475.8" y="391.9" width="12.2" height="24.65" shape-rendering="crispEdges"/><rect fill="#161616" x="488" y="391.9" width="12.2" height="24.65" shape-rendering="crispEdges"/><rect fill="#161616" x="500.2" y="391.9" width="890.6" height="24.65" shape-rendering="crispEdges"/><rect fill="#161616" x="1390.8" y="391.9" width="12.2" height="24.65" shape-rendering="crispEdges"/><rect fill="#191b1d" x="0" y="416.3" width="12.2" height="24.65" shape-rendering="crispEdges"/><rect fill="#191b1d" x="12.2" y="416.3" width="463.6" height="24.65" shape-rendering="crispEdges"/><rect fill="#191b1d" x="475.8" y="416.3" width="12.2" height="24.65" shape-rendering="crispEdges"/><rect fill="#161616" x="488" y="416.3" width="12.2" height="24.65" shape-rendering="crispEdges"/><rect fill="#161616" x="500.2" y="416.3" width="890.6" height="24.65" shape-rendering="crispEdges"/><rect fill="#161616" x="1390.8" y="416.3" width="12.2" height="24.65" shape-rendering="crispEdges"/><rect fill="#191b1d" x="0" y="440.7" width="36.6" height="24.65" shape-rendering="crispEdges"/><rect fill="#191b1d" x="36.6" y="440.7" width="134.2" height="24.65" shape-rendering="crispEdges"/><rect fill="#191b1d" x="170.8" y="440.7" width="12.2" height="24.65" shape-rendering="crispEdges"/><rect fill="#191b1d" x="183" y="440.7" width="48.8" height="24.65" shape-rendering="crispEdges"/><rect fill="#191b1d" x="231.8" y="440.7" width="109.8" height="24.65" shape-rendering="crispEdges"/><rect fill="#191b1d" x="341.6" y="440.7" width="12.2" height="24.65" shape-rendering="crispEdges"/><rect fill="#191b1d" x="353.8" y="440.7" width="48.8" height="24.65" shape-rendering="crispEdges"/><rect fill="#191b1d" x="402.6" y="440.7" width="48.8" height="24.65" shape-rendering="crispEdges"/><rect fill="#191b1d" x="451.4" y="440.7" width="12.2" height="24.65" shape-rendering="crispEdges"/><rect fill="#191b1d" x="463.6" y="440.7" width="48.8" height="24.65" shape-rendering="crispEdges"/><rect fill="#191b1d" x="512.4" y="440.7" width="48.8" height="24.65" shape-rendering="crispEdges"/><rect fill="#191b1d" x="561.2" y="440.7" width="12.2" height="24.65" shape-rendering="crispEdges"/><rect fill="#191b1d" x="573.4" y="440.7" width="48.8" height="24.65" shape-rendering="crispEdges"/><rect fill="#191b1d" x="622.2" y="440.7" width="146.4" height="24.65" shape-rendering="crispEdges"/><rect fill="#191b1d" x="768.6" y="440.7" width="12.2" height="24.65" shape-rendering="crispEdges"/><rect fill="#191b1d" x="780.8" y="440.7" width="48.8" height="24.65" shape-rendering="crispEdges"/><rect fill="#191b1d" x="829.6" y="440.7" width="97.6" height="24.65" shape-rendering="crispEdges"/><rect fill="#191b1d" x="927.2" y="440.7" width="12.2" height="24.65" shape-rendering="crispEdges"/><rect fill="#191b1d" x="939.4" y="440.7" width="48.8" height="24.65" shape-rendering="crispEdges"/><rect fill="#191b1d" x="988.2" y="440.7" width="158.6" height="24.65" shape-rendering="crispEdges"/><rect fill="#191b1d" x="1146.8" y="440.7" width="12.2" height="24.65" shape-rendering="crispEdges"/><rect fill="#191b1d" x="1159" y="440.7" width="244" height="24.65" shape-rendering="crispEdges"/>
    <g class="terminal-1673814280-matrix">
    <text class="terminal-1673814280-r2" x="12.2" y="20" textLength="12.2" clip-path="url(#terminal-1673814280-line-0)">⭘</text><text class="terminal-1673814280-r2" x="634.4" y="20" textLength="97.6" clip-path="url(#terminal-1673814280-line-0)">Memotica</text><text class="terminal-1673814280-r3" x="1403" y="20" textLength="12.2" clip-path="url(#terminal-1673814280-line-0)">
</text><text class="terminal-1673814280-r4" x="0" y="44.4" textLength="12.2" clip-path="url(#terminal-1673814280-line-1)">┌</text><text class="terminal-1673814280-r4" x="12.2" y="44.4" textLength="12.2" clip-path="url(#terminal-1673814280-line-1)">─</text><text class="terminal-1673814280-r4" x="24.4" y="44.4" textLength="85.4" clip-path="url(#terminal-1673814280-line-1)">&#160;Decks&#160;</text><text class="terminal-1673814280-r4" x="109.8" y="44.4" textLength="366" clip-path="url(#terminal-1673814280-line-1)">──────────────────────────────</text><text class="terminal-1673814280-r4" x="475.8" y="44.4" textLength="12.2" clip-path="url(#terminal-1673814280-line-1)">┐</text><text class="terminal-1673814280-r4" x="488" y="44.4" textLength="12.2" clip-path="url(#terminal-1673814280-line-1)">┌</text><text class="terminal-1673814280-r4" x="500.2" y="44.4" textLength="12.2" clip-path="url(#terminal-1673814280-line-1)">─</text><text class="terminal-1673814280-r4" x="512.4" y="44.4" textLength="146.4" clip-path="url(#terminal-1673814280-line-1)">&#160;Flashcards&#160;</text><text class="terminal-1673814280-r4" x="658.8" y="44.4" textLength="732" clip-path="url(#terminal-1673814280-line-1)">────────────────────────────────────────────────────────────</text><text class="terminal-1673814280-r4" x="1390.8" y="44.4" textLength="12.2" clip-path="url(#terminal-1673814280-line-1)">┐</text><text class="terminal-1673814280-r3" x="1403" y="44.4" textLength="12.2" clip-path="url(#terminal-1673814280-line-1)">
</text><text class="terminal-1673814280-r4" x="0" y="68.8" textLength="12.2" clip-path="url(#terminal-1673814280-line-2)">│</text><text class="terminal-1673814280-r2" x="12.2" y="68.8" textLength="24.4" clip-path="url(#terminal-1673814280-line-2)">▼&#160;</text><text class="terminal-1673814280-r2" x="36.6" y="68.8" textLength="12.2" clip-path="url(#terminal-1673814280-line-2)">*</text><text class="terminal-1673814280-r4" x="475.8" y="68.8" textLength="12.2" clip-path="url(#terminal-1673814280-line-2)">│</text><text class="terminal-1673814280-r4" x="488" y="68.8" textLength="12.2" clip-path="url(#terminal-1673814280-line-2)">│</text><text class="terminal-1673814280-r5" x="500.2" y="68.8" textLength="183" clip-path="url(#terminal-1673814280-line-2)">&#160;Front&#160;&#160;&#160;&#160;&#160;&#160;&#160;&#160;&#160;</text><text class="terminal-1673814280-r5" x="683.2" y="68.8" textLength="146.4" clip-path="url(#terminal-1673814280-line-2)">&#160;Back&#160;&#160;&#160;&#160;&#160;&#160;&#160;</text><text class="terminal-1673814280-r5" x="829.6" y="68.8" textLength="146.4" clip-path="url(#terminal-1673814280-line-2)">&#160;Reversible&#160;</text><text class="terminal-1673814280-r5" x="976" y="68.8" textLength="134.2" clip-path="url(#terminal-1673814280-line-2)">&#160;Deck&#160;&#160;&#160;&#160;&#160;&#160;</text><text class="terminal-1673814280-r4" x="1390.8" y="68.8" textLength="12.2" clip-path="url(#terminal-1673814280-line-2)">│</text><text class="terminal-1673814280-r3" x="1403" y="68.8" textLength="12.2" clip-path="url(#terminal-1673814280-line-2)">
</text><text class="terminal-1673814280-r4" x="0" y="93.2" textLength="12.2" clip-path="url(#terminal-1673814280-line-3)">│</text><text class="terminal-1673814280-r7" x="12.2" y="93.2" textLength="36.6" clip-path="url(#terminal-1673814280-line-3)">├─&#160;</text><text class="terminal-1673814280-r8" x="48.8" y="93.2" textLength="109.8" clip-path="url(#terminal-1673814280-line-3)">German&#160;A1</text><text class="terminal-1673814280-r9" x="329.4" y="93.2" textLength="12.2" clip-path="url(#terminal-1673814280-line-3)">┌</text><text class="terminal-1673814280-r9" x="341.6" y="93.2" textLength="12.2" clip-path="url(#terminal-1673814280-line-3)">─</text><text class="terminal-1673814280-r9" x="353.8" y="93.2" textLength="73.2" clip-path="url(#terminal-1673814280-line-3)">&#160;Help&#160;</text><text class="terminal-1673814280-r9" x="427" y="93.2" textLength="622.2" clip-path="url(#terminal-1673814280-line-3)">───────────────────────────────────────────────────</text><text class="terminal-1673814280-r9" x="1049.2" y="93.2" textLength="12.2" clip-path="url(#terminal-1673814280-line-3)">┐</text><text class="terminal-1673814280-r10" x="1061.4" y="93.2" textLength="48.8" clip-path="url(#terminal-1673814280-line-3)">&#160;A1&#160;</text><text class="terminal-1673814280-r4" x="1390.8" y="93.2" textLength="12.2" clip-path="url(#terminal-1673814280-line-3)">│</text><text class="terminal-1673814280-r3" x="1403" y="93.2" textLength="12.2" clip-path="url(#terminal-1673814280-line-3)">
</text><text class="terminal-1673814280-r4" x="0" y="117.6" textLength="12.2" clip-path="url(#terminal-1673814280-line-4)">│</text><text class="terminal-1673814280-r7" x="12.2" y="117.6" textLength="36.6" clip-path="url(#terminal-1673814280-line-4)">├─&#160;</text><text class="terminal-1673814280-r2" x="48.8" y="117.6" textLength="109.8" clip-path="url(#terminal-1673814280-line-4)">German&#160;A2</text><text class="terminal-1673814280-r9" x="329.4" y="117.6" textLength="12.2" clip-path="url(#terminal-1673814280-line-4)">│</text><text class="terminal-1673814280-r9" x="1049.2" y="117.6" textLength="12.2" clip-path="url(#terminal-1673814280-line-4)">│</text><text class="terminal-1673814280-r11" x="1061.4" y="117.6" textLength="48.8" clip-path="url(#terminal-1673814280-line-4)">&#160;A1&#160;</text><text class="terminal-1673814280-r4" x="1390.8" y="117.6" textLength="12.2" clip-path="url(#terminal-1673814280-line-4)">│</text><text class="terminal-1673814280-r3" x="1403" y="117.6" textLength="12.2" clip-path="url(#terminal-1673814280-line-4)">
</text><text class="terminal-1673814280-r4" x="0" y="142" textLength="12.2" clip-path="url(#terminal-1673814280-line-5)">│</text><text class="terminal-1673814280-r7" x="12.2" y="142" textLength="36.6" clip-path="url(#terminal-1673814280-line-5)">├─&#160;</text><text class="terminal-1673814280-r2" x="48.8" y="142" textLength="97.6" clip-path="url(#terminal-1673814280-line-5)">Hiragana</text><text class="terminal-1673814280-r9" x="329.4" y="142" textLength="12.2" clip-path="url(#terminal-1673814280-line-5)">│</text><text class="terminal-1673814280-r13" x="366" y="142" textLength="97.6" clip-path="url(#terminal-1673814280-line-5)">Movement</text><text class="terminal-1673814280-r9" x="1049.2" y="142" textLength="12.2" clip-path="url(#terminal-1673814280-line-5)">│</text><text class="terminal-1673814280-r11" x="1061.4" y="142" textLength="48.8" clip-path="url(#terminal-1673814280-line-5)">&#160;A1&#160;</text><text class="terminal-1673814280-r4" x="1390.8" y="142" textLength="12.2" clip-path="url(#terminal-1673814280-line-5)">│</text><text class="terminal-1673814280-r3" x="1403" y="142" textLength="12.2" clip-path="url(#terminal-1673814280-line-5)">
</text><text class="terminal-1673814280-r4" x="0" y="166.4" textLength="12.2" clip-path="url(#terminal-1673814280-line-6)">│</text><text class="terminal-1673814280-r7" x="12.2" y="166.4" textLength="36.6" clip-path="url(#terminal-1673814280-line-6)">└─&#160;</text><text class="terminal-1673814280-r2" x="48.8" y="166.4" textLength="97.6" clip-path="url(#terminal-1673814280-line-6)">Katakana</text><text class="terminal-1673814280-r9" x="329.4" y="166.4" textLength="12.2" clip-path="url(#terminal-1673814280-line-6)">│</text><text class="terminal-1673814280-r9" x="1049.2" y="166.4" textLength="12.2" clip-path="url(#terminal-1673814280-line-6)">│</text><text class="terminal-1673814280-r11" x="1061.4" y="166.4" textLength="48.8" clip-path="url(#terminal-1673814280-line-6)">&#160;A1&#160;</text><text class="terminal-1673814280-r4" x="1390.8" y="166.4" textLength="12.2" clip-path="url(#terminal-1673814280-line-6)">│</text><text class="terminal-1673814280-r3" x="1403" y="166.4" textLength="12.2" clip-path="url(#terminal-1673814280-line-6)">
</text><text class="terminal-1673814280-r4" x="0" y="190.8" textLength="12.2" clip-path="url(#terminal-1673814280-line-7)">│</text><text class="terminal-1673814280-r9" x="329.4" y="190.8" textLength="12.2" clip-path="url(#terminal-1673814280-line-7)">│</text><text class="terminal-1673814280-r13" x="366" y="190.8" textLength="24.4" clip-path="url(#terminal-1673814280-line-7)">●&#160;</text><text class="terminal-1673814280-r14" x="390.4" y="190.8" textLength="36.6" clip-path="url(#terminal-1673814280-line-7)">j/k</text><text class="terminal-1673814280-r12" x="427" y="190.8" textLength="183" clip-path="url(#terminal-1673814280-line-7)">:&#160;Move&#160;up/down.</text><text class="terminal-1673814280-r15" x="1024.8" y="190.8" textLength="24.4" clip-path="url(#terminal-1673814280-line-7)">▄▄</text><text class="terminal-1673814280-r9" x="1049.2" y="190.8" textLength="12.2" clip-path="url(#terminal-1673814280-line-7)">│</text><text class="terminal-1673814280-r11" x="1061.4" y="190.8" textLength="48.8" clip-path="url(#terminal-1673814280-line-7)">&#160;A1&#160;</text><text class="terminal-1673814280-r4" x="1390.8" y="190.8" textLength="12.2" clip-path="url(#terminal-1673814280-line-7)">│</text><text class="terminal-1673814280-r3" x="1403" y="190.8" textLength="12.2" clip-path="url(#terminal-1673814280-line-7)">
</text><text class="terminal-1673814280-r4" x="0" y="215.2" textLength="12.2" clip-path="url(#terminal-1673814280-line-8)">│</text><text class="terminal-1673814280-r9" x="329.4" y="215.2" textLength="12.2" clip-path="url(#terminal-1673814280-line-8)">│</text><text class="terminal-1673814280-r13" x="366" y="215.2" textLength="24.4" clip-path="url(#terminal-1673814280-line-8)">●&#160;</text><text class="terminal-1673814280-r14" x="390.4" y="215.2" textLength="36.6" clip-path="url(#terminal-1673814280-line-8)">tab</text><text class="terminal-1673814280-r12" x="427" y="215.2" textLength="500.2" clip-path="url(#terminal-1673814280-line-8)">:&#160;Toggle&#160;focus&#160;between&#160;the&#160;deck&#160;tree&#160;and&#160;</text><text class="terminal-1673814280-r9" x="1049.2" y="215.2" textLength="12.2" clip-path="url(#terminal-1673814280-line-8)">│</text><text class="terminal-1673814280-r11" x="1061.4" y="215.2" textLength="48.8" clip-path="url(#terminal-1673814280-line-8)">&#160;A1&#160;</text><text class="terminal-1673814280-r4" x="1390.8" y="215.2" textLength="12.2" clip-path="url(#terminal-1673814280-line-8)">│</text><text class="terminal-1673814280-r3" x="1403" y="215.2" textLength="12.2" clip-path="url(#terminal-1673814280-line-8)">
</text><text class="terminal-1673814280-r4" x="0" y="239.6" textLength="12.2" clip-path="url(#terminal-1673814280-line-9)">│</text><text class="terminal-1673814280-r9" x="329.4" y="239.6" textLength="12.2" clip-path="url(#terminal-1673814280-line-9)">│</text><text class="terminal-1673814280-r12" x="390.4" y="239.6" textLength="207.4" clip-path="url(#terminal-1673814280-line-9)">flashcards&#160;table.</text><text class="terminal-1673814280-r9" x="1049.2" y="239.6" textLength="12.2" clip-path="url(#terminal-1673814280-line-9)">│</text><text class="terminal-1673814280-r11" x="1061.4" y="239.6" textLength="48.8" clip-path="url(#terminal-1673814280-line-9)">&#160;A1&#160;</text><text class="terminal-1673814280-r4" x="1390.8" y="239.6" textLength="12.2" clip-path="url(#terminal-1673814280-line-9)">│</text><text class="terminal-1673814280-r3" x="1403" y="239.6" textLength="12.2" clip-path="url(#terminal-1673814280-line-9)">
</text><text class="terminal-1673814280-r4" x="0" y="264" textLength="12.2" clip-path="url(#terminal-1673814280-line-10)">│</text><text class="terminal-1673814280-r9" x="329.4" y="264" textLength="12.2" clip-path="url(#terminal-1673814280-line-10)">│</text><text class="terminal-1673814280-r9" x="1049.2" y="264" textLength="12.2" clip-path="url(#terminal-1673814280-line-10)">│</text><text class="terminal-1673814280-r11" x="1061.4" y="264" textLength="48.8" clip-path="url(#terminal-1673814280-line-10)">&#160;A1&#160;</text><text class="terminal-1673814280-r4" x="1390.8" y="264" textLength="12.2" clip-path="url(#terminal-1673814280-line-10)">│</text><text class="terminal-1673814280-r3" x="1403" y="264" textLength="12.2" clip-path="url(#terminal-1673814280-line-10)">
</text><text class="terminal-1673814280-r4" x="0" y="288.4" textLength="12.2" clip-path="url(#terminal-1673814280-line-11)">│</text><text class="terminal-1673814280-r9" x="329.4" y="288.4" textLength="12.2" clip-path="url(#terminal-1673814280-line-11)">│</text><text class="terminal-1673814280-r13" x="366" y="288.4" textLength="195.2" clip-path="url(#terminal-1673814280-line-11)">General&#160;Bindings</text><text class="terminal-1673814280-r9" x="1049.2" y="288.4" textLength="12.2" clip-path="url(#terminal-1673814280-line-11)">│</text><text class="terminal-1673814280-r11" x="1061.4" y="288.4" textLength="48.8" clip-path="url(#terminal-1673814280-line-11)">&#160;A1&#160;</text><text class="terminal-1673814280-r4" x="1390.8" y="288.4" textLength="12.2" clip-path="url(#terminal-1673814280-line-11)">│</text><text class="terminal-1673814280-r3" x="1403" y="288.4" textLength="12.2" clip-path="url(#terminal-1673814280-line-11)">
</text><text class="terminal-1673814280-r4" x="0" y="312.8" textLength="12.2" clip-path="url(#terminal-1673814280-line-12)">│</text><text class="terminal-1673814280-r9" x="329.4" y="312.8" textLength="12.2" clip-path="url(#terminal-1673814280-line-12)">│</text><text class="terminal-1673814280-r9" x="1049.2" y="312.8" textLength="12.2" clip-path="url(#terminal-1673814280-line-12)">│</text><text class="terminal-1673814280-r11" x="1061.4" y="312.8" textLength="48.8" clip-path="url(#terminal-1673814280-line-12)">&#160;A1&#160;</text><text class="terminal-1673814280-r4" x="1390.8" y="312.8" textLength="12.2" clip-path="url(#terminal-1673814280-line-12)">│</text><text class="terminal-1673814280-r3" x="1403" y="312.8" textLength="12.2" clip-path="url(#terminal-1673814280-line-12)">
</text><text class="terminal-1673814280-r4" x="0" y="337.2" textLength="12.2" clip-path="url(#terminal-1673814280-line-13)">│</text><text class="terminal-1673814280-r9" x="329.4" y="337.2" textLength="12.2" clip-path="url(#terminal-1673814280-line-13)">│</text><text class="terminal-1673814280-r13" x="366" y="337.2" textLength="24.4" clip-path="url(#terminal-1673814280-line-13)">●&#160;</text><text class="terminal-1673814280-r14" x="390.4" y="337.2" textLength="24.4" clip-path="url(#terminal-1673814280-line-13)">F1</text><text class="terminal-1673814280-r12" x="414.8" y="337.2" textLength="268.4" clip-path="url(#terminal-1673814280-line-13)">:&#160;Display&#160;this&#160;screen.</text><text class="terminal-1673814280-r9" x="1049.2" y="337.2" textLength="12.2" clip-path="url(#terminal-1673814280-line-13)">│</text><text class="terminal-1673814280-r4" x="1390.8" y="337.2" textLength="12.2" clip-path="url(#terminal-1673814280-line-13)">│</text><text class="terminal-1673814280-r3" x="1403" y="337.2" textLength="12.2" clip-path="url(#terminal-1673814280-line-13)">
</text><text class="terminal-1673814280-r4" x="0" y="361.6" textLength="12.2" clip-path="url(#terminal-1673814280-line-14)">│</text><text class="terminal-1673814280-r9" x="329.4" y="361.6" textLength="12.2" clip-path="url(#terminal-1673814280-line-14)">└</text><text class="terminal-1673814280-r9" x="341.6" y="361.6" textLength="707.6" clip-path="url(#terminal-1673814280-line-14)">──────────────────────────────────────────────────────────</text><text class="terminal-1673814280-r9" x="1049.2" y="361.6" textLength="12.2" clip-path="url(#terminal-1673814280-line-14)">┘</text><text class="terminal-1673814280-r4" x="1390.8" y="361.6" textLength="12.2" clip-path="url(#terminal-1673814280-line-14)">│</text><text class="terminal-1673814280-r3" x="1403" y="361.6" textLength="12.2" clip-path="url(#terminal-1673814280-line-14)">
</text><text class="terminal-1673814280-r4" x="0" y="386" textLength="12.2" clip-path="url(#terminal-1673814280-line-15)">│</text><text class="terminal-1673814280-r4" x="475.8" y="386" textLength="12.2" clip-path="url(#terminal-1673814280-line-15)">│</text><text class="terminal-1673814280-r4" x="488" y="386" textLength="12.2" clip-path="url(#terminal-1673814280-line-15)">│</text><text class="terminal-1673814280-r4" x="1390.8" y="386" textLength="12.2" clip-path="url(#terminal-1673814280-line-15)">│</text><text class="terminal-1673814280-r3" x="1403" y="386" textLength="12.2" clip-path="url(#terminal-1673814280-line-15)">
</text><text class="terminal-1673814280-r4" x="0" y="410.4" textLength="12.2" clip-path="url(#terminal-1673814280-line-16)">│</text><text class="terminal-1673814280-r4" x="475.8" y="410.4" textLength="12.2" clip-path="url(#terminal-1673814280-line-16)">│</text><text class="terminal-1673814280-r4" x="488" y="410.4" textLength="12.2" clip-path="url(#terminal-1673814280-line-16)">│</text><text class="terminal-1673814280-r4" x="1390.8" y="410.4" textLength="12.2" clip-path="url(#terminal-1673814280-line-16)">│</text><text class="terminal-1673814280-r3" x="1403" y="410.4" textLength="12.2" clip-path="url(#terminal-1673814280-line-16)">
</text><text class="terminal-1673814280-r4" x="0" y="434.8" textLength="12.2" clip-path="url(#terminal-1673814280-line-17)">└</text><text class="terminal-1673814280-r4" x="12.2" y="434.8" textLength="463.6" clip-path="url(#terminal-1673814280-line-17)">──────────────────────────────────────</text><text class="terminal-1673814280-r4" x="475.8" y="434.8" textLength="12.2" clip-path="url(#terminal-1673814280-line-17)">┘</text><text class="terminal-1673814280-r4" x="488" y="434.8" textLength="12.2" clip-path="url(#terminal-1673814280-line-17)">└</text><text class="terminal-1673814280-r4" x="500.2" y="434.8" textLength="890.6" clip-path="url(#terminal-1673814280-line-17)">─────────────────────────────────────────────────────────────────────────</text><text class="terminal-1673814280-r4" x="1390.8" y="434.8" textLength="12.2" clip-path="url(#terminal-1673814280-line-17)">┘</text><text class="terminal-1673814280-r3" x="1403" y="434.8" textLength="12.2" clip-path="url(#terminal-1673814280-line-17)">
</text><text class="terminal-1673814280-r16" x="0" y="459.2" textLength="36.6" clip-path="url(#terminal-1673814280-line-18)">&#160;⌫&#160;</text><text class="terminal-1673814280-r17" x="36.6" y="459.2" textLength="134.2" clip-path="url(#terminal-1673814280-line-18)">Delete&#160;Deck</text><text class="terminal-1673814280-r16" x="183" y="459.2" textLength="48.8" clip-path="url(#terminal-1673814280-line-18)">&#160;^e&#160;</text><text class="terminal-1673814280-r17" x="231.8" y="459.2" textLength="109.8" clip-path="url(#terminal-1673814280-line-18)">Edit&#160;Deck</text><text class="terminal-1673814280-r16" x="353.8" y="459.2" textLength="48.8" clip-path="url(#terminal-1673814280-line-18)">&#160;f1&#160;</text><text class="terminal-1673814280-r17" x="402.6" y="459.2" textLength="48.8" clip-path="url(#terminal-1673814280-line-18)">Help</text><text class="terminal-1673814280-r16" x="463.6" y="459.2" textLength="48.8" clip-path="url(#terminal-1673814280-line-18)">&#160;^q&#160;</text><text class="terminal-1673814280-r17" x="512.4" y="459.2" textLength="48.8" clip-path="url(#terminal-1673814280-line-18)">Quit</text><text class="terminal-1673814280-r16" x="573.4" y="459.2" textLength="48.8" clip-path="url(#terminal-1673814280-line-18)">&#160;^s&#160;</text><text class="terminal-1673814280-r17" x="622.2" y="459.2" textLength="146.4" clip-path="url(#terminal-1673814280-line-18)">Start&#160;Review</text><text class="terminal-1673814280-r16" x="780.8" y="459.2" textLength="48.8" clip-path="url(#terminal-1673814280-line-18)">&#160;^n&#160;</text><text class="terminal-1673814280-r17" x="829.6" y="459.2" textLength="97.6" clip-path="url(#terminal-1673814280-line-18)">Add&#160;Deck</text><text class="terminal-1673814280-r16" x="939.4" y="459.2" textLength="48.8" clip-path="url(#terminal-1673814280-line-18)">&#160;^a&#160;</text><text class="terminal-1673814280-r17" x="988.2" y="459.2" textLength="158.6" clip-path="url(#terminal-1673814280-line-18)">Add&#160;Flashcard</text>
    </g>
    </g>
</svg>
