<svg class="rich-terminal" viewBox="0 0 1421 513.5999999999999" xmlns="http://www.w3.org/2000/svg">
    <!-- Generated with Rich https://www.textualize.io -->
    <style>

    @font-face {
        font-family: "Fira Code";
        src: local("FiraCode-Regular"),
                url("https://cdnjs.cloudflare.com/ajax/libs/firacode/6.2.0/woff2/FiraCode-Regular.woff2") format("woff2"),
                url("https://cdnjs.cloudflare.com/ajax/libs/firacode/6.2.0/woff/FiraCode-Regular.woff") format("woff");
        font-style: normal;
        font-weight: 400;
    }
    @font-face {
        font-family: "Fira Code";
        src: local("FiraCode-Bold"),
                url("https://cdnjs.cloudflare.com/ajax/libs/firacode/6.2.0/woff2/FiraCode-Bold.woff2") format("woff2"),
                url("https://cdnjs.cloudflare.com/ajax/libs/firacode/6.2.0/woff/FiraCode-Bold.woff") format("woff");
        font-style: bold;
        font-weight: 700;
    }

    .terminal-3901851361-matrix {
        font-family: Fira Code, monospace;
        font-size: 20px;
        line-height: 24.4px;
        font-variant-east-asian: full-width;
    }

    .terminal-3901851361-title {
        font-size: 18px;
        font-weight: bold;
        font-family: arial;
    }

    .terminal-3901851361-r1 { fill: #e1e1e1 }
.terminal-3901851361-r2 { fill: #fea62b }
.terminal-3901851361-r3 { fill: #c5c8c6 }
.terminal-3901851361-r4 { fill: #e76580 }
.terminal-3901851361-r5 { fill: #ffcf56 }
.terminal-3901851361-r6 { fill: #7ae998 }
.terminal-3901851361-r7 { fill: #f5e5e9;font-weight: bold }
.terminal-3901851361-r8 { fill: #211505;font-weight: bold }
.terminal-3901851361-r9 { fill: #0a180e;font-weight: bold }
.terminal-3901851361-r10 { fill: #780028 }
.terminal-3901851361-r11 { fill: #b86b00 }
.terminal-3901851361-r12 { fill: #008139 }
.terminal-3901851361-r13 { fill: #fea62b;font-weight: bold }
.terminal-3901851361-r14 { fill: #a7a9ab }
.terminal-3901851361-r15 { fill: #e2e3e3 }
    </style>

    <defs>
    <clipPath id="terminal-3901851361-clip-terminal">
      <rect x="0" y="0" width="1402.0" height="462.59999999999997" />
    </clipPath>
    <clipPath id="terminal-3901851361-line-0">
    <rect x="0" y="1.5" width="1403" height="24.65"/>
            </clipPath>
<clipPath id="terminal-3901851361-line-1">
    <rect x="0" y="25.9" width="1403" height="24.65"/>
            </clipPath>
<clipPath id="terminal-3901851361-line-2">
    <rect x="0" y="50.3" width="1403" height="24.65"/>
            </clipPath>
<clipPath id="terminal-3901851361-line-3">
    <rect x="0" y="74.7" width="1403" height="24.65"/>
            </clipPath>
<clipPath id="terminal-3901851361-line-4">
    <rect x="0" y="99.1" width="1403" height="24.65"/>
            </clipPath>
<clipPath id="terminal-3901851361-line-5">
    <rect x="0" y="123.5" width="1403" height="24.65"/>
            </clipPath>
<clipPath id="terminal-3901851361-line-6">
    <rect x="0" y="147.9" width="1403" height="24.65"/>
            </clipPath>
<clipPath id="terminal-3901851361-line-7">
    <rect x="0" y="172.3" width="1403" height="24.65"/>
            </clipPath>
<clipPath id="terminal-3901851361-line-8">
    <rect x="0" y="196.7" width="1403" height="24.65"/>
            </clipPath>
<clipPath id="terminal-3901851361-line-9">
    <rect x="0" y="221.1" width="1403" height="24.65"/>
            </clipPath>
<clipPath id="terminal-3901851361-line-10">
    <rect x="0" y="245.5" width="1403" height="24.65"/>
            </clipPath>
<clipPath id="terminal-3901851361-line-11">
    <rect x="0" y="269.9" width="1403" height="24.65"/>
            </clipPath>
<clipPath id="terminal-3901851361-line-12">
    <rect x="0" y="294.3" width="1403" height="24.65"/>
            </clipPath>
<clipPath id="terminal-3901851361-line-13">
    <rect x="0" y="318.7" width="1403" height="24.65"/>
            </clipPath>
<clipPath id="terminal-3901851361-line-14">
    <rect x="0" y="343.1" width="1403" height="24.65"/>
            </clipPath>
<clipPath id="terminal-3901851361-line-15">
    <rect x="0" y="367.5" width="1403" height="24.65"/>
            </clipPath>
<clipPath id="terminal-3901851361-line-16">
    <rect x="0" y="391.9" width="1403" height="24.65"/>
            </clipPath>
<clipPath id="terminal-3901851361-line-17">
    <rect x="0" y="416.3" width="1403" height="24.65"/>
            </clipPath>
    </defs>

    <rect fill="#292929" stroke="rgba(255,255,255,0.35)" stroke-width="1" x="1" y="1" width="1419" height="511.6" rx="8"/><text class="terminal-3901851361-title" fill="#c5c8c6" text-anchor="middle" x="709" y="27">Memotica</text>
            <g transform="translate(26,22)">
            <circle cx="0" cy="0" r="7" fill="#ff5f57"/>
            <circle cx="22" cy="0" r="7" fill="#febc2e"/>
            <circle cx="44" cy="0" r="7" fill="#28c840"/>
            </g>
        
    <g transform="translate(9, 41)" clip-path="url(#terminal-3901851361-clip-terminal)">
    <rect fill="#1e1e1e" x="0" y="1.5" width="24.4" height="24.65" shape-rendering="crispEdges"/><rect fill="#1e1e1e" x="24.4" y="1.5" width="12.2" height="24.65" shape-rendering="crispEdges"/><rect fill="#1e1e1e" x="36.6" y="1.5" width="1329.8" height="24.65" shape-rendering="crispEdges"/><rect fill="#1e1e1e" x="1366.4" y="1.5" width="12.2" height="24.65" shape-rendering="crispEdges"/><rect fill="#1e1e1e" x="1378.6" y="1.5" width="24.4" height="24.65" shape-rendering="crispEdges"/><rect fill="#1e1e1e" x="0" y="25.9" width="24.4" height="24.65" shape-rendering="crispEdges"/><rect fill="#1e1e1e" x="24.4" y="25.9" width="12.2" height="24.65" shape-rendering="crispEdges"/><rect fill="#1e1e1e" x="36.6" y="25.9" width="1329.8" height="24.65" shape-rendering="crispEdges"/><rect fill="#1e1e1e" x="1366.4" y="25.9" width="12.2" height="24.65" shape-rendering="crispEdges"/><rect fill="#1e1e1e" x="1378.6" y="25.9" width="24.4" height="24.65" shape-rendering="crispEdges"/><rect fill="#1e1e1e" x="0" y="50.3" width="24.4" height="24.65" shape-rendering="crispEdges"/><rect fill="#1e1e1e" x="24.4" y="50.3" width="12.2" height="24.65" shape-rendering="crispEdges"/><rect fill="#1e1e1e" x="36.6" y="50.3" width="12.2" height="24.65" shape-rendering="crispEdges"/><rect fill="#1e1e1e" x="48.8" y="50.3" width="97.6" height="24.65" shape-rendering="crispEdges"/><rect fill="#1e1e1e" x="146.4" y="50.3" width="1207.8" height="24.65" shape-rendering="crispEdges"/><rect fill="#1e1e1e" x="1354.2" y="50.3" width="12.2" height="24.65" shape-rendering="crispEdges"/><rect fill="#1e1e1e" x="1366.4" y="50.3" width="12.2" height="24.65" shape-rendering="crispEdges"/><rect fill="#1e1e1e" x="1378.6" y="50.3" width="24.4" height="24.65" shape-rendering="crispEdges"/><rect fill="#1e1e1e" x="0" y="74.7" width="24.4" height="24.65" shape-rendering="crispEdges"/><rect fill="#1e1e1e" x="24.4" y="74.7" width="12.2" height="24.65" shape-rendering="crispEdges"/><rect fill="#1e1e1e" x="36.6" y="74.7" width="12.2" height="24.65" shape-rendering="crispEdges"/><rect fill="#1e1e1e" x="48.8" y="74.7" width="1305.4" height="24.65" shape-rendering="crispEdges"/><rect fill="#1e1e1e" x="1354.2" y="74.7" width="12.2" height="24.65" shape-rendering="crispEdges"/><rect fill="#1e1e1e" x="1366.4" y="74.7" width="12.2" height="24.65" shape-rendering="crispEdges"/><rect fill="#1e1e1e" x="1378.6" y="74.7" width="24.4" height="24.65" shape-rendering="crispEdges"/><rect fill="#1e1e1e" x="0" y="99.1" width="24.4" height="24.65" shape-rendering="crispEdges"/><rect fill="#1e1e1e" x="24.4" y="99.1" width="12.2" height="24.65" shape-rendering="crispEdges"/><rect fill="#1e1e1e" x="36.6" y="99.1" width="1329.8" height="24.65" shape-rendering="crispEdges"/><rect fill="#1e1e1e" x="1366.4" y="99.1" width="12.2" height="24.65" shape-rendering="crispEdges"/><rect fill="#1e1e1e" x="1378.6" y="99.1" width="24.4" height="24.65" shape-rendering="crispEdges"/><rect fill="#1e1e1e" x="0" y="123.5" width="24.4" height="24.65" shape-rendering="crispEdges"/><rect fill="#1e1e1e" x="24.4" y="123.5" width="12.2" height="24.65" shape-rendering="crispEdges"/><rect fill="#1e1e1e" x="36.6" y="123.5" width="1329.8" height="24.65" shape-rendering="crispEdges"/><rect fill="#1e1e1e" x="1366.4" y="123.5" width="12.2" height="24.65" shape-rendering="crispEdges"/><rect fill="#1e1e1e" x="1378.6" y="123.5" width="24.4" height="24.65" shape-rendering="crispEdges"/><rect fill="#1e1e1e" x="0" y="147.9" width="1403" height="24.65" shape-rendering="crispEdges"/><rect fill="#1e1e1e" x="0" y="172.3" width="24.4" height="24.65" shape-rendering="crispEdges"/><rect fill="#1e1e1e" x="24.4" y="172.3" width="12.2" height="24.65" shape-rendering="crispEdges"/><rect fill="#1e1e1e" x="36.6" y="172.3" width="1329.8" height="24.65" shape-rendering="crispEdges"/><rect fill="#1e1e1e" x="1366.4" y="172.3" width="12.2" height="24.65" shape-rendering="crispEdges"/><rect fill="#1e1e1e" x="1378.6" y="172.3" width="24.4" height="24.65" shape-rendering="crispEdges"/><rect fill="#1e1e1e" x="0" y="196.7" width="24.4" height="24.65" shape-rendering="crispEdges"/><rect fill="#1e1e1e" x="24.4" y="196.7" width="12.2" height="24.65" shape-rendering="crispEdges"/><rect fill="#1e1e1e" x="36.6" y="196.7" width="1329.8" height="24.65" shape-rendering="crispEdges"/><rect fill="#1e1e1e" x="1366.4" y="196.7" width="12.2" height="24.65" shape-rendering="crispEdges"/><rect fill="#1e1e1e" x="1378.6" y="196.7" width="24.4" height="24.65" shape-rendering="crispEdges"/><rect fill="#1e1e1e" x="0" y="221.1" width="24.4" height="24.65" shape-rendering="crispEdges"/><rect fill="#1e1e1e" x="24.4" y="221.1" width="12.2" height="24.65" shape-rendering="crispEdges"/><rect fill="#1e1e1e" x="36.6" y="221.1" width="12.2" height="24.65" shape-rendering="crispEdges"/><rect fill="#1e1e1e" x="48.8" y="221.1" width="48.8" height="24.65" shape-rendering="crispEdges"/><rect fill="#1e1e1e" x="97.6" y="221.1" width="1256.6" height="24.65" shape-rendering="crispEdges"/><rect fill="#1e1e1e" x="1354.2" y="221.1" width="12.2" height="24.65" shape-rendering="crispEdges"/><rect fill="#1e1e1e" x="1366.4" y="221.1" width="12.2" height="24.65" shape-rendering="crispEdges"/><rect fill="#1e1e1e" x="1378.6" y="221.1" width="24.4" height="24.65" shape-rendering="crispEdges"/><rect fill="#1e1e1e" x="0" y="245.5" width="24.4" height="24.65" shape-rendering="crispEdges"/><rect fill="#1e1e1e" x="24.4" y="245.5" width="12.2" height="24.65" shape-rendering="crispEdges"/><rect fill="#1e1e1e" x="36.6" y="245.5" width="12.2" height="24.65" shape-rendering="crispEdges"/><rect fill="#1e1e1e" x="48.8" y="245.5" width="1305.4" height="24.65" shape-rendering="crispEdges"/><rect fill="#1e1e1e" x="1354.2" y="245.5" width="12.2" height="24.65" shape-rendering="crispEdges"/><rect fill="#1e1e1e" x="1366.4" y="245.5" width="12.2" height="24.65" shape-rendering="crispEdges"/><rect fill="#1e1e1e" x="1378.6" y="245.5" width="24.4" height="24.65" shape-rendering="crispEdges"/><rect fill="#1e1e1e" x="0" y="269.9" width="24.4" height="24.65" shape-rendering="crispEdges"/><rect fill="#1e1e1e" x="24.4" y="269.9" width="12.2" height="24.65" shape-rendering="crispEdges"/><rect fill="#1e1e1e" x="36.6" y="269.9" width="1329.8" height="24.65" shape-rendering="crispEdges"/><rect fill="#1e1e1e" x="1366.4" y="269.9" width="12.2" height="24.65" shape-rendering="crispEdges"/><rect fill="#1e1e1e" x="1378.6" y="269.9" width="24.4" height="24.65" shape-rendering="crispEdges"/><rect fill="#1e1e1e" x="0" y="294.3" width="24.4" height="24.65" shape-rendering="crispEdges"/><rect fill="#1e1e1e" x="24.4" y="294.3" width="12.2" height="24.65" shape-rendering="crispEdges"/><rect fill="#1e1e1e" x="36.6" y="294.3" width="1329.8" height="24.65" shape-rendering="crispEdges"/><rect fill="#1e1e1e" x="1366.4" y="294.3" width="12.2" height="24.65" shape-rendering="crispEdges"/><rect fill="#1e1e1e" x="1378.6" y="294.3" width="24.4" height="24.65" shape-rendering="crispEdges"/><rect fill="#1e1e1e" x="0" y="318.7" width="1403" height="24.65" shape-rendering="crispEdges"/><rect fill="#1e1e1e" x="0" y="343.1" width="378.2" height="24.65" shape-rendering="crispEdges"/><rect fill="#b93c5b" x="378.2" y="343.1" width="195.2" height="24.65" shape-rendering="crispEdges"/><rect fill="#fea62b" x="573.4" y="343.1" width="195.2" height="24.65" shape-rendering="crispEdges"/><rect fill="#4ebf71" x="768.6" y="343.1" width="195.2" height="24.65" shape-rendering="crispEdges"/><rect fill="#1e1e1e" x="963.8" y="343.1" width="390.4" height="24.65" shape-rendering="crispEdges"/><rect fill="#1e1e1e" x="1354.2" y="343.1" width="48.8" height="24.65" shape-rendering="crispEdges"/><rect fill="#1e1e1e" x="0" y="367.5" width="378.2" height="24.65" shape-rendering="crispEdges"/><rect fill="#b93c5b" x="378.2" y="367.5" width="48.8" height="24.65" shape-rendering="crispEdges"/><rect fill="#b93c5b" x="427" y="367.5" width="12.2" height="24.65" shape-rendering="crispEdges"/><rect fill="#b93c5b" x="439.2" y="367.5" width="61" height="24.65" shape-rendering="crispEdges"/><rect fill="#b93c5b" x="500.2" y="367.5" width="12.2" height="24.65" shape-rendering="crispEdges"/><rect fill="#b93c5b" x="512.4" y="367.5" width="61" height="24.65" shape-rendering="crispEdges"/><rect fill="#fea62b" x="573.4" y="367.5" width="61" height="24.65" shape-rendering="crispEdges"/><rect fill="#fea62b" x="634.4" y="367.5" width="12.2" height="24.65" shape-rendering="crispEdges"/><rect fill="#fea62b" x="646.6" y="367.5" width="48.8" height="24.65" shape-rendering="crispEdges"/><rect fill="#fea62b" x="695.4" y="367.5" width="12.2" height="24.65" shape-rendering="crispEdges"/><rect fill="#fea62b" x="707.6" y="367.5" width="61" height="24.65" shape-rendering="crispEdges"/><rect fill="#4ebf71" x="768.6" y="367.5" width="61" height="24.65" shape-rendering="crispEdges"/><rect fill="#4ebf71" x="829.6" y="367.5" width="12.2" height="24.65" shape-rendering="crispEdges"/><rect fill="#4ebf71" x="841.8" y="367.5" width="48.8" height="24.65" shape-rendering="crispEdges"/><rect fill="#4ebf71" x="890.6" y="367.5" width="12.2" height="24.65" shape-rendering="crispEdges"/><rect fill="#4ebf71" x="902.8" y="367.5" width="61" height="24.65" shape-rendering="crispEdges"/><rect fill="#1e1e1e" x="963.8" y="367.5" width="390.4" height="24.65" shape-rendering="crispEdges"/><rect fill="#1e1e1e" x="1354.2" y="367.5" width="48.8" height="24.65" shape-rendering="crispEdges"/><rect fill="#1e1e1e" x="0" y="391.9" width="378.2" height="24.65" shape-rendering="crispEdges"/><rect fill="#b93c5b" x="378.2" y="391.9" width="195.2" height="24.65" shape-rendering="crispEdges"/><rect fill="#fea62b" x="573.4" y="391.9" width="195.2" height="24.65" shape-rendering="crispEdges"/><rect fill="#4ebf71" x="768.6" y="391.9" width="195.2" height="24.65" shape-rendering="crispEdges"/><rect fill="#1e1e1e" x="963.8" y="391.9" width="390.4" height="24.65" shape-rendering="crispEdges"/><rect fill="#1e1e1e" x="1354.2" y="391.9" width="48.8" height="24.65" shape-rendering="crispEdges"/><rect fill="#1e1e1e" x="0" y="416.3" width="1354.2" height="24.65" shape-rendering="crispEdges"/><rect fill="#1e1e1e" x="1354.2" y="416.3" width="48.8" height="24.65" shape-rendering="crispEdges"/><rect fill="#24292f" x="0" y="440.7" width="48.8" height="24.65" shape-rendering="crispEdges"/><rect fill="#24292f" x="48.8" y="440.7" width="231.8" height="24.65" shape-rendering="crispEdges"/><rect fill="#24292f" x="280.6" y="440.7" width="12.2" height="24.65" shape-rendering="crispEdges"/><rect fill="#24292f" x="292.8" y="440.7" width="48.8" height="24.65" shape-rendering="crispEdges"/><rect fill="#24292f" x="341.6" y="440.7" width="48.8" height="24.65" shape-rendering="crispEdges"/><rect fill="#24292f" x="390.4" y="440.7" width="12.2" height="24.65" shape-rendering="crispEdges"/><rect fill="#24292f" x="402.6" y="440.7" width="1000.4" height="24.65" shape-rendering="crispEdges"/>
    <g class="terminal-3901851361-matrix">
    <text class="terminal-3901851361-r2" x="24.4" y="20" textLength="12.2" clip-path="url(#terminal-3901851361-line-0)">┌</text><text class="terminal-3901851361-r2" x="36.6" y="20" textLength="1329.8" clip-path="url(#terminal-3901851361-line-0)">─────────────────────────────────────────────────────────────────────────────────────────────────────────────</text><text class="terminal-3901851361-r2" x="1366.4" y="20" textLength="12.2" clip-path="url(#terminal-3901851361-line-0)">┐</text><text class="terminal-3901851361-r3" x="1403" y="20" textLength="12.2" clip-path="url(#terminal-3901851361-line-0)">
</text><text class="terminal-3901851361-r2" x="24.4" y="44.4" textLength="12.2" clip-path="url(#terminal-3901851361-line-1)">│</text><text class="terminal-3901851361-r2" x="1366.4" y="44.4" textLength="12.2" clip-path="url(#terminal-3901851361-line-1)">│</text><text class="terminal-3901851361-r3" x="1403" y="44.4" textLength="12.2" clip-path="url(#terminal-3901851361-line-1)">
</text><text class="terminal-3901851361-r2" x="24.4" y="68.8" textLength="12.2" clip-path="url(#terminal-3901851361-line-2)">│</text><text class="terminal-3901851361-r1" x="48.8" y="68.8" textLength="97.6" clip-path="url(#terminal-3901851361-line-2)">die&#160;Bank</text><text class="terminal-3901851361-r2" x="1366.4" y="68.8" textLength="12.2" clip-path="url(#terminal-3901851361-line-2)">│</text><text class="terminal-3901851361-r3" x="1403" y="68.8" textLength="12.2" clip-path="url(#terminal-3901851361-line-2)">
</text><text class="terminal-3901851361-r2" x="24.4" y="93.2" textLength="12.2" clip-path="url(#terminal-3901851361-line-3)">│</text><text class="terminal-3901851361-r2" x="1366.4" y="93.2" textLength="12.2" clip-path="url(#terminal-3901851361-line-3)">│</text><text class="terminal-3901851361-r3" x="1403" y="93.2" textLength="12.2" clip-path="url(#terminal-3901851361-line-3)">
</text><text class="terminal-3901851361-r2" x="24.4" y="117.6" textLength="12.2" clip-path="url(#terminal-3901851361-line-4)">│</text><text class="terminal-3901851361-r2" x="1366.4" y="117.6" textLength="12.2" clip-path="url(#terminal-3901851361-line-4)">│</text><text class="terminal-3901851361-r3" x="1403" y="117.6" textLength="12.2" clip-path="url(#terminal-3901851361-line-4)">
</text><text class="terminal-3901851361-r2" x="24.4" y="142" textLength="12.2" clip-path="url(#terminal-3901851361-line-5)">└</text><text class="terminal-3901851361-r2" x="36.6" y="142" textLength="1329.8" clip-path="url(#terminal-3901851361-line-5)">─────────────────────────────────────────────────────────────────────────────────────────────────────────────</text><text class="terminal-3901851361-r2" x="1366.4" y="142" textLength="12.2" clip-path="url(#terminal-3901851361-line-5)">┘</text><text class="terminal-3901851361-r3" x="1403" y="142" textLength="12.2" clip-path="url(#terminal-3901851361-line-5)">
</text><text class="terminal-3901851361-r3" x="1403" y="166.4" textLength="12.2" clip-path="url(#terminal-3901851361-line-6)">
</text><text class="terminal-3901851361-r2" x="24.4" y="190.8" textLength="12.2" clip-path="url(#terminal-3901851361-line-7)">┌</text><text class="terminal-3901851361-r2" x="36.6" y="190.8" textLength="1329.8" clip-path="url(#terminal-3901851361-line-7)">─────────────────────────────────────────────────────────────────────────────────────────────────────────────</text><text class="terminal-3901851361-r2" x="1366.4" y="190.8" textLength="12.2" clip-path="url(#terminal-3901851361-line-7)">┐</text><text class="terminal-3901851361-r3" x="1403" y="190.8" textLength="12.2" clip-path="url(#terminal-3901851361-line-7)">
</text><text class="terminal-3901851361-r2" x="24.4" y="215.2" textLength="12.2" clip-path="url(#terminal-3901851361-line-8)">│</text><text class="terminal-3901851361-r2" x="1366.4" y="215.2" textLength="12.2" clip-path="url(#terminal-3901851361-line-8)">│</text><text class="terminal-3901851361-r3" x="1403" y="215.2" textLength="12.2" clip-path="url(#terminal-3901851361-line-8)">
</text><text class="terminal-3901851361-r2" x="24.4" y="239.6" textLength="12.2" clip-path="url(#terminal-3901851361-line-9)">│</text><text class="terminal-3901851361-r1" x="48.8" y="239.6" textLength="48.8" clip-path="url(#terminal-3901851361-line-9)">Bank</text><text class="terminal-3901851361-r2" x="1366.4" y="239.6" textLength="12.2" clip-path="url(#terminal-3901851361-line-9)">│</text><text class="terminal-3901851361-r3" x="1403" y="239.6" textLength="12.2" clip-path="url(#terminal-3901851361-line-9)">
</text><text class="terminal-3901851361-r2" x="24.4" y="264" textLength="12.2" clip-path="url(#terminal-3901851361-line-10)">│</text><text class="terminal-3901851361-r2" x="1366.4" y="264" textLength="12.2" clip-path="url(#terminal-3901851361-line-10)">│</text><text class="terminal-3901851361-r3" x="1403" y="264" textLength="12.2" clip-path="url(#terminal-3901851361-line-10)">
</text><text class="terminal-3901851361-r2" x="24.4" y="288.4" textLength="12.2" clip-path="url(#terminal-3901851361-line-11)">│</text><text class="terminal-3901851361-r2" x="1366.4" y="288.4" textLength="12.2" clip-path="url(#terminal-3901851361-line-11)">│</text><text class="terminal-3901851361-r3" x="1403" y="288.4" textLength="12.2" clip-path="url(#terminal-3901851361-line-11)">
</text><text class="terminal-3901851361-r2" x="24.4" y="312.8" textLength="12.2" clip-path="url(#terminal-3901851361-line-12)">└</text><text class="terminal-3901851361-r2" x="36.6" y="312.8" textLength="1329.8" clip-path="url(#terminal-3901851361-line-12)">─────────────────────────────────────────────────────────────────────────────────────────────────────────────</text><text class="terminal-3901851361-r2" x="1366.4" y="312.8" textLength="12.2" clip-path="url(#terminal-3901851361-line-12)">┘</text><text class="terminal-3901851361-r3" x="1403" y="312.8" textLength="12.2" clip-path="url(#terminal-3901851361-line-12)">
</text><text class="terminal-3901851361-r3" x="1403" y="337.2" textLength="12.2" clip-path="url(#terminal-3901851361-line-13)">
</text><text class="terminal-3901851361-r4" x="378.2" y="361.6" textLength="195.2" clip-path="url(#terminal-3901851361-line-14)">▔▔▔▔▔▔▔▔▔▔▔▔▔▔▔▔</text><text class="terminal-3901851361-r5" x="573.4" y="361.6" textLength="195.2" clip-path="url(#terminal-3901851361-line-14)">▔▔▔▔▔▔▔▔▔▔▔▔▔▔▔▔</text><text class="terminal-3901851361-r6" x="768.6" y="361.6" textLength="195.2" clip-path="url(#terminal-3901851361-line-14)">▔▔▔▔▔▔▔▔▔▔▔▔▔▔▔▔</text><text class="terminal-3901851361-r3" x="1403" y="361.6" textLength="12.2" clip-path="url(#terminal-3901851361-line-14)">
</text><text class="terminal-3901851361-r7" x="439.2" y="386" textLength="61" clip-path="url(#terminal-3901851361-line-15)">Wrong</text><text class="terminal-3901851361-r8" x="646.6" y="386" textLength="48.8" clip-path="url(#terminal-3901851361-line-15)">Good</text><text class="terminal-3901851361-r9" x="841.8" y="386" textLength="48.8" clip-path="url(#terminal-3901851361-line-15)">Easy</text><text class="terminal-3901851361-r3" x="1403" y="386" textLength="12.2" clip-path="url(#terminal-3901851361-line-15)">
</text><text class="terminal-3901851361-r10" x="378.2" y="410.4" textLength="195.2" clip-path="url(#terminal-3901851361-line-16)">▁▁▁▁▁▁▁▁▁▁▁▁▁▁▁▁</text><text class="terminal-3901851361-r11" x="573.4" y="410.4" textLength="195.2" clip-path="url(#terminal-3901851361-line-16)">▁▁▁▁▁▁▁▁▁▁▁▁▁▁▁▁</text><text class="terminal-3901851361-r12" x="768.6" y="410.4" textLength="195.2" clip-path="url(#terminal-3901851361-line-16)">▁▁▁▁▁▁▁▁▁▁▁▁▁▁▁▁</text><text class="terminal-3901851361-r3" x="1403" y="410.4" textLength="12.2" clip-path="url(#terminal-3901851361-line-16)">
</text><text class="terminal-3901851361-r3" x="1403" y="434.8" textLength="12.2" clip-path="url(#terminal-3901851361-line-17)">
</text><text class="terminal-3901851361-r13" x="0" y="459.2" textLength="48.8" clip-path="url(#terminal-3901851361-line-18)">&#160;^q&#160;</text><text class="terminal-3901851361-r14" x="48.8" y="459.2" textLength="231.8" clip-path="url(#terminal-3901851361-line-18)">Exit&#160;Review&#160;Session</text><text class="terminal-3901851361-r13" x="292.8" y="459.2" textLength="48.8" clip-path="url(#terminal-3901851361-line-18)">&#160;f1&#160;</text><text class="terminal-3901851361-r14" x="341.6" y="459.2" textLength="48.8" clip-path="url(#terminal-3901851361-line-18)">Help</text>
    </g>
    </g>
</svg>
